<?xml version="1.0" encoding="UTF-8"?>
<!DOCTYPE svg PUBLIC "-//W3C//DTD SVG 1.1//EN" "http://www.w3.org/Graphics/SVG/1.1/DTD/svg11.dtd">
<svg xmlns="http://www.w3.org/2000/svg" version="1.1" width="1938px" height="2206px" style="shape-rendering:geometricPrecision; text-rendering:geometricPrecision; image-rendering:optimizeQuality; fill-rule:evenodd; clip-rule:evenodd" xmlns:xlink="http://www.w3.org/1999/xlink">
<g><path style="opacity:1" fill="#090a0b" d="M 1219.5,404.5 C 1226.95,403.512 1234.45,402.845 1242,402.5C 1245.12,403.593 1245.29,405.093 1242.5,407C 1243.88,408.461 1243.55,409.294 1241.5,409.5C 1237.19,408.632 1232.86,408.466 1228.5,409C 1226.23,412.478 1224.73,416.311 1224,420.5C 1224.69,458.83 1225.53,497.163 1226.5,535.5C 1227.6,589.168 1228.44,642.834 1229,696.5C 1227.67,697.833 1226.33,697.833 1225,696.5C 1221.71,672.864 1218.71,649.197 1216,625.5C 1196.98,642.177 1181.32,661.51 1169,683.5C 1150.69,714.595 1138.19,747.928 1131.5,783.5C 1130.02,790.442 1128.35,797.442 1126.5,804.5C 1132.26,818.551 1137.93,832.551 1143.5,846.5C 1148.85,864.427 1154.02,882.427 1159,900.5C 1171.26,957.756 1171.59,1015.09 1160,1072.5C 1149.78,1123.91 1133.61,1173.24 1111.5,1220.5C 1103.21,1236.39 1093.37,1251.39 1082,1265.5C 1083.24,1349.76 1093.91,1432.76 1114,1514.5C 1140.62,1526.14 1163.96,1542.48 1184,1563.5C 1205.53,1589.26 1219.7,1618.6 1226.5,1651.5C 1258.2,1647.77 1288.87,1651.6 1318.5,1663C 1331.08,1668.59 1343.75,1674.09 1356.5,1679.5C 1361.74,1665.61 1366.91,1651.61 1372,1637.5C 1375.56,1624.69 1378.23,1611.69 1380,1598.5C 1384.2,1561.52 1388.2,1524.52 1392,1487.5C 1398.16,1412.79 1404.82,1338.12 1412,1263.5C 1427.76,1122.3 1453.42,982.965 1489,845.5C 1509.74,757.743 1549.74,680.41 1609,613.5C 1635.64,583.591 1667.81,561.757 1705.5,548C 1716.42,544.282 1727.42,543.782 1738.5,546.5C 1739.46,546.03 1739.46,545.363 1738.5,544.5C 1741.28,545.889 1744.28,546.722 1747.5,547C 1745.74,547.202 1744.08,547.702 1742.5,548.5C 1742.86,549.183 1743.2,549.85 1743.5,550.5C 1731.17,549.548 1719.17,551.048 1707.5,555C 1673.7,572.119 1643.87,594.619 1618,622.5C 1570.46,676.213 1535.79,737.546 1514,806.5C 1499.41,858.085 1486.58,910.085 1475.5,962.5C 1474.34,965.273 1473.68,968.273 1473.5,971.5C 1473.5,971.833 1473.5,972.167 1473.5,972.5C 1471.42,978.558 1470.09,984.891 1469.5,991.5C 1447.94,1095.89 1431.44,1201.23 1420,1307.5C 1412.11,1404.1 1401.77,1500.43 1389,1596.5C 1384.35,1626.62 1375.18,1655.29 1361.5,1682.5C 1384.44,1695.27 1401.27,1713.6 1412,1737.5C 1426.34,1786.99 1410.17,1822.49 1363.5,1844C 1326.15,1858.03 1287.81,1861.37 1248.5,1854C 1206.81,1847.59 1173.31,1827.75 1148,1794.5C 1141.33,1803.17 1134.67,1811.83 1128,1820.5C 1091.2,1860.97 1052.7,1899.8 1012.5,1937C 1007.12,1941.35 1001.45,1945.18 995.5,1948.5C 993.418,1948.47 991.584,1949.14 990,1950.5C 986.643,1949.26 986.81,1948.42 990.5,1948C 987.716,1947.11 985.05,1945.94 982.5,1944.5C 977.713,1947.63 976.713,1946.96 979.5,1942.5C 988.824,1936.5 997.824,1930 1006.5,1923C 1056.94,1875.57 1104.94,1825.9 1150.5,1774C 1161.65,1764.43 1173.98,1756.93 1187.5,1751.5C 1187.95,1754.01 1187.28,1756.01 1185.5,1757.5C 1173.74,1765.09 1163.74,1774.59 1155.5,1786C 1162.99,1795.99 1171.66,1804.82 1181.5,1812.5C 1203.89,1831.51 1229.89,1841.35 1259.5,1842C 1295.53,1846.66 1330.2,1842 1363.5,1828C 1370.32,1824.27 1376.32,1819.61 1381.5,1814C 1377.41,1807.09 1371.41,1802.59 1363.5,1800.5C 1357.47,1797.32 1351.14,1794.82 1344.5,1793C 1343.66,1791.99 1343.33,1790.82 1343.5,1789.5C 1353.16,1790.1 1362.49,1792.1 1371.5,1795.5C 1377.1,1799.26 1381.93,1803.93 1386,1809.5C 1393.43,1800.55 1397.77,1790.21 1399,1778.5C 1399.82,1764.11 1397.82,1750.11 1393,1736.5C 1391.01,1731.84 1388.51,1727.51 1385.5,1723.5C 1382.69,1721.9 1379.69,1720.9 1376.5,1720.5C 1369.16,1720.67 1361.83,1720.5 1354.5,1720C 1353.17,1719 1353.17,1718 1354.5,1717C 1359.09,1715.77 1363.75,1715.27 1368.5,1715.5C 1372.51,1715.67 1376.51,1715.5 1380.5,1715C 1373.34,1704.67 1364.01,1697.17 1352.5,1692.5C 1325.22,1677.46 1296.22,1667.3 1265.5,1662C 1257.84,1661.5 1250.17,1661.33 1242.5,1661.5C 1237.12,1661.32 1231.79,1661.66 1226.5,1662.5C 1226.5,1670.83 1226.5,1679.17 1226.5,1687.5C 1226.5,1687.83 1226.5,1688.17 1226.5,1688.5C 1224.64,1691.02 1222.81,1691.02 1221,1688.5C 1214.15,1649.25 1199.15,1613.58 1176,1581.5C 1162.3,1564.47 1146.14,1550.3 1127.5,1539C 1106.83,1528.67 1086.17,1518.33 1065.5,1508C 1057.73,1502.74 1050.4,1496.9 1043.5,1490.5C 1040.43,1494.29 1037.6,1498.29 1035,1502.5C 1031.76,1509.99 1028.26,1517.32 1024.5,1524.5C 1024.17,1524 1023.83,1523.5 1023.5,1523C 1025.4,1516.88 1027.07,1510.71 1028.5,1504.5C 1037.92,1478.09 1048.42,1452.09 1060,1426.5C 1064.45,1412.82 1067.28,1398.82 1068.5,1384.5C 1070.03,1373.42 1069.53,1362.42 1067,1351.5C 1060.63,1357.05 1053.47,1361.05 1045.5,1363.5C 1045.35,1362.45 1045.52,1361.45 1046,1360.5C 1052.3,1355.2 1058.3,1349.53 1064,1343.5C 1063.64,1332.95 1059.14,1324.45 1050.5,1318C 1035.11,1306.86 1018.11,1303.52 999.5,1308C 997.939,1308.32 996.772,1309.15 996,1310.5C 993.982,1317.26 992.482,1324.1 991.5,1331C 990.216,1331.68 989.049,1331.52 988,1330.5C 987.831,1324.14 987.331,1317.81 986.5,1311.5C 963.437,1320.19 942.771,1332.69 924.5,1349C 907.928,1363.74 892.595,1379.57 878.5,1396.5C 873.188,1402.15 867.855,1407.81 862.5,1413.5C 861.5,1413.17 860.833,1412.5 860.5,1411.5C 864.752,1404.66 869.252,1397.99 874,1391.5C 874.688,1390.67 874.521,1390 873.5,1389.5C 863.234,1393.47 853.234,1397.8 843.5,1402.5C 840.873,1403.09 838.206,1403.42 835.5,1403.5C 835.087,1400.68 836.087,1398.68 838.5,1397.5C 854.14,1390.01 869.807,1382.51 885.5,1375C 886.743,1373.85 887.743,1372.51 888.5,1371C 877.639,1371.22 867.972,1368.06 859.5,1361.5C 843.346,1346.54 832.846,1328.21 828,1306.5C 823.605,1288.74 821.938,1270.74 823,1252.5C 829.563,1163.1 861.23,1084.1 918,1015.5C 927.98,1004.18 939.147,994.345 951.5,986C 960.099,980.871 968.766,976.038 977.5,971.5C 999.586,963.41 1021.59,963.576 1043.5,972C 1062.85,982.02 1075.68,997.52 1082,1018.5C 1087.12,1036.31 1089.62,1054.47 1089.5,1073C 1089.33,1121.16 1082.5,1168.33 1069,1214.5C 1059.68,1240.29 1048.51,1265.29 1035.5,1289.5C 1035.67,1289.83 1035.83,1290.17 1036,1290.5C 1042.75,1283.59 1048.92,1276.25 1054.5,1268.5C 1072.23,1247.41 1086.73,1224.08 1098,1198.5C 1122.26,1142.05 1138.59,1083.38 1147,1022.5C 1150.82,980.991 1147.82,939.991 1138,899.5C 1124.96,844.332 1102.3,793.665 1070,747.5C 1054.13,725.96 1037.13,705.294 1019,685.5C 1008.26,674.922 997.094,664.922 985.5,655.5C 973.773,645.457 961.107,636.624 947.5,629C 910.846,617.503 873.512,613.336 835.5,616.5C 811.392,616.838 787.392,618.505 763.5,621.5C 757.25,620.744 752.416,617.744 749,612.5C 747.059,608.952 745.393,605.286 744,601.5C 740.528,585.336 738.361,569.002 737.5,552.5C 684.178,542.529 630.512,540.029 576.5,545C 535.641,562.355 501.475,588.522 474,623.5C 449.361,654.772 426.694,687.438 406,721.5C 400.318,732.864 394.651,744.198 389,755.5C 384.186,761.611 378.686,762.111 372.5,757C 364.22,746.937 358.72,735.437 356,722.5C 346.41,691.783 343.41,660.45 347,628.5C 349.328,611.669 354.495,595.836 362.5,581C 311.741,596.686 265.241,620.519 223,652.5C 218.333,659.833 213.667,667.167 209,674.5C 204.186,685.287 199.186,695.953 194,706.5C 185.156,715.508 174.656,721.842 162.5,725.5C 163.445,724.007 164.445,722.507 165.5,721C 163.539,718.863 161.206,717.363 158.5,716.5C 165.219,713.559 172.219,711.059 179.5,709C 182.941,707.224 186.108,705.057 189,702.5C 193.587,690.401 198.754,678.568 204.5,667C 204.272,666.601 203.938,666.435 203.5,666.5C 204.315,665.163 205.482,664.163 207,663.5C 207.893,664.711 208.726,664.711 209.5,663.5C 208.286,661.931 206.619,661.098 204.5,661C 202.802,654.738 199.635,653.905 195,658.5C 194.55,662.243 192.55,664.576 189,665.5C 188.5,665.167 188,664.833 187.5,664.5C 188.689,663.571 190.022,663.238 191.5,663.5C 191.5,662.5 191.5,661.5 191.5,660.5C 188.962,661.043 186.628,662.043 184.5,663.5C 209.604,643.113 235.937,624.447 263.5,607.5C 285.177,595.495 307.511,584.828 330.5,575.5C 301.032,521.89 269.532,469.557 236,418.5C 212.594,385.676 187.761,354.009 161.5,323.5C 160.581,320.911 158.914,318.911 156.5,317.5C 151.676,308.921 144.343,304.755 134.5,305C 132.714,305.785 131.214,306.951 130,308.5C 126.249,315.602 123.416,322.935 121.5,330.5C 120.827,325.334 119.494,325.168 117.5,330C 118.051,331.398 118.384,332.732 118.5,334C 117.773,335.399 117.273,336.899 117,338.5C 114.099,340.599 111.266,342.599 108.5,344.5C 110.704,333.685 113.537,323.019 117,312.5C 125.608,293.718 138.775,289.885 156.5,301C 208.896,352.362 254.062,409.195 292,471.5C 311.591,503.677 330.425,536.343 348.5,569.5C 375.237,560.149 402.57,552.982 430.5,548C 524.424,529.336 618.924,524.169 714,532.5C 737.249,416.394 779.583,308.06 841,207.5C 846.62,200.873 853.12,195.373 860.5,191C 866.833,187.667 873.167,187.667 879.5,191C 884.588,194.083 889.088,197.917 893,202.5C 918.397,238.95 939.397,277.95 956,319.5C 1000.66,439.135 1032.33,562.135 1051,688.5C 1063,703.669 1074.83,719.002 1086.5,734.5C 1112.24,673.926 1154.41,628.593 1213,598.5C 1210.64,538.835 1211.31,479.168 1215,419.5C 1215.39,415.781 1216.06,412.114 1217,408.5C 1217.2,406.68 1218.03,405.347 1219.5,404.5 Z"/></g>
<g><path style="opacity:1" fill="#3bb5ac" d="M 887.5,218.5 C 889.167,218.5 890.833,218.5 892.5,218.5C 917.264,263.257 937.098,310.257 952,359.5C 965.313,407.526 979.313,455.526 994,503.5C 1007.84,558.186 1020.34,613.186 1031.5,668.5C 1031.33,669.167 1031.17,669.833 1031,670.5C 996.772,641.967 959.938,617.301 920.5,596.5C 921.88,595.294 923.047,595.627 924,597.5C 924.333,596.833 924.667,596.167 925,595.5C 927.39,599.294 930.556,600.627 934.5,599.5C 934.311,551.543 930.478,503.876 923,456.5C 919.966,411.56 914.633,366.894 907,322.5C 898.651,288.135 891.151,253.635 884.5,219C 885.448,218.517 886.448,218.351 887.5,218.5 Z"/></g>
<g><path style="opacity:1" fill="#82cdc7" d="M 887.5,218.5 C 886.448,218.351 885.448,218.517 884.5,219C 891.151,253.635 898.651,288.135 907,322.5C 914.633,366.894 919.966,411.56 923,456.5C 930.478,503.876 934.311,551.543 934.5,599.5C 930.556,600.627 927.39,599.294 925,595.5C 924.667,596.167 924.333,596.833 924,597.5C 923.047,595.627 921.88,595.294 920.5,596.5C 874.949,573.365 827.282,556.199 777.5,545C 761.626,541.41 745.626,538.577 729.5,536.5C 730.382,530.644 731.715,524.977 733.5,519.5C 736.137,516.011 738.637,512.345 741,508.5C 757.775,473.285 774.775,438.285 792,403.5C 800.063,382.272 809.063,361.605 819,341.5C 827.814,314.39 837.814,287.724 849,261.5C 856.631,245.886 866.465,231.886 878.5,219.5C 881.52,217.68 884.52,217.347 887.5,218.5 Z"/></g>
<g><path style="opacity:1" fill="#d8f0fb" d="M 892.5,218.5 C 890.833,218.5 889.167,218.5 887.5,218.5C 884.52,217.347 881.52,217.68 878.5,219.5C 866.465,231.886 856.631,245.886 849,261.5C 837.814,287.724 827.814,314.39 819,341.5C 809.063,361.605 800.063,382.272 792,403.5C 774.775,438.285 757.775,473.285 741,508.5C 738.637,512.345 736.137,516.011 733.5,519.5C 759.972,416.913 796.805,318.246 844,223.5C 849.068,213.765 856.234,205.932 865.5,200C 870.111,198.993 874.445,199.66 878.5,202C 884.128,206.786 888.795,212.286 892.5,218.5 Z"/></g>
<g><path style="opacity:1" fill="#82cdc7" d="M 156.5,317.5 C 158.914,318.911 160.581,320.911 161.5,323.5C 179.218,366.107 195.385,409.774 210,454.5C 230.154,504.835 247.987,555.835 263.5,607.5C 235.937,624.447 209.604,643.113 184.5,663.5C 144.676,696.479 111.176,734.812 84,778.5C 83.3333,757.167 83.3333,735.833 84,714.5C 85.082,665.659 86.582,616.992 88.5,568.5C 88.3359,571.187 88.5026,573.854 89,576.5C 93.7758,546.731 100.442,517.397 109,488.5C 116.088,442.796 123.421,397.13 131,351.5C 134.382,340.835 139.548,331.168 146.5,322.5C 148.776,321.787 151.109,321.287 153.5,321C 155.063,320.241 156.063,319.074 156.5,317.5 Z"/></g>
<g><path style="opacity:1" fill="#3bb5ac" d="M 161.5,323.5 C 187.761,354.009 212.594,385.676 236,418.5C 269.532,469.557 301.032,521.89 330.5,575.5C 307.511,584.828 285.177,595.495 263.5,607.5C 247.987,555.835 230.154,504.835 210,454.5C 195.385,409.774 179.218,366.107 161.5,323.5 Z"/></g>
<g><path style="opacity:1" fill="#d6effa" d="M 156.5,317.5 C 156.063,319.074 155.063,320.241 153.5,321C 151.109,321.287 148.776,321.787 146.5,322.5C 139.548,331.168 134.382,340.835 131,351.5C 123.421,397.13 116.088,442.796 109,488.5C 100.442,517.397 93.7758,546.731 89,576.5C 88.5026,573.854 88.3359,571.187 88.5,568.5C 90.2005,517.096 95.7005,466.096 105,415.5C 110.073,387.059 115.573,358.726 121.5,330.5C 123.416,322.935 126.249,315.602 130,308.5C 131.214,306.951 132.714,305.785 134.5,305C 144.343,304.755 151.676,308.921 156.5,317.5 Z"/></g>
<g><path style="opacity:1" fill="#0b0b0b" d="M 1402.5,-0.5 C 1405.5,-0.5 1408.5,-0.5 1411.5,-0.5C 1418.53,2.44582 1424.7,6.77915 1430,12.5C 1454.81,48.7824 1475.48,87.449 1492,128.5C 1520.19,193.418 1548.19,258.418 1576,323.5C 1586.27,293.348 1596.94,263.348 1608,233.5C 1614.87,217.434 1622.53,201.767 1631,186.5C 1640.5,171.196 1651.5,169.862 1664,182.5C 1672.32,211.094 1678.99,240.094 1684,269.5C 1695.79,351.697 1708.79,433.697 1723,515.5C 1785.55,558.317 1836.55,611.984 1876,676.5C 1908.59,742.412 1929.09,811.745 1937.5,884.5C 1937.5,895.5 1937.5,906.5 1937.5,917.5C 1932.56,1009.22 1918.06,1099.55 1894,1188.5C 1888.47,1208.44 1882.13,1228.1 1875,1247.5C 1858.14,1285.08 1841.47,1322.75 1825,1360.5C 1811.68,1387.16 1796.34,1412.5 1779,1436.5C 1769.1,1447.07 1758.6,1456.9 1747.5,1466C 1737.78,1473.53 1726.78,1477.03 1714.5,1476.5C 1703.54,1515.88 1689.71,1554.22 1673,1591.5C 1646.87,1643.44 1621.53,1695.77 1597,1748.5C 1559.51,1825.98 1510.34,1895.15 1449.5,1956C 1420,1984.18 1387.66,2008.51 1352.5,2029C 1289.52,2062 1222.52,2075.33 1151.5,2069C 1117.95,2066.37 1086.61,2056.7 1057.5,2040C 1024.43,2020.11 995.426,1995.27 970.5,1965.5C 951.73,1976.38 932.063,1985.38 911.5,1992.5C 917.45,2058.39 900.284,2117.39 860,2169.5C 843.117,2190.52 821.284,2202.52 794.5,2205.5C 789.5,2205.5 784.5,2205.5 779.5,2205.5C 752.919,2203.77 732.752,2191.44 719,2168.5C 701.876,2138 695.876,2105.33 701,2070.5C 701.975,2048.93 707.475,2028.6 717.5,2009.5C 679.384,2000.86 644.384,1985.36 612.5,1963C 578.819,1938.66 548.986,1910.16 523,1877.5C 498.051,1841.25 480.385,1801.59 470,1758.5C 464.712,1731.06 459.046,1703.73 453,1676.5C 443.076,1669.45 432.576,1663.28 421.5,1658C 393.968,1648.6 366.302,1639.6 338.5,1631C 315.823,1622.17 294.823,1610.5 275.5,1596C 254.816,1577.63 243.149,1554.63 240.5,1527C 242.679,1496.27 257.346,1473.94 284.5,1460C 302.099,1454.68 320.099,1451.68 338.5,1451C 350.54,1450.42 362.54,1450.42 374.5,1451C 325.863,1435.79 277.863,1418.79 230.5,1400C 192.201,1382.3 156.534,1360.64 123.5,1335C 73.7634,1292.07 38.5967,1239.24 18,1176.5C 8.0411,1144.39 1.87444,1111.73 -0.5,1078.5C -0.5,1067.17 -0.5,1055.83 -0.5,1044.5C 4.11162,980.703 17.6116,918.703 40,858.5C 46.6122,842.609 54.2788,827.276 63,812.5C 63.5221,717.348 67.5221,622.348 75,527.5C 81.4983,465.519 92.665,404.519 108.5,344.5C 111.266,342.599 114.099,340.599 117,338.5C 117.273,336.899 117.773,335.399 118.5,334C 118.384,332.732 118.051,331.398 117.5,330C 119.494,325.168 120.827,325.334 121.5,330.5C 115.573,358.726 110.073,387.059 105,415.5C 95.7005,466.096 90.2005,517.096 88.5,568.5C 86.582,616.992 85.082,665.659 84,714.5C 83.3333,735.833 83.3333,757.167 84,778.5C 111.176,734.812 144.676,696.479 184.5,663.5C 186.628,662.043 188.962,661.043 191.5,660.5C 191.5,661.5 191.5,662.5 191.5,663.5C 190.022,663.238 188.689,663.571 187.5,664.5C 188,664.833 188.5,665.167 189,665.5C 192.55,664.576 194.55,662.243 195,658.5C 199.635,653.905 202.802,654.738 204.5,661C 206.619,661.098 208.286,661.931 209.5,663.5C 208.726,664.711 207.893,664.711 207,663.5C 205.482,664.163 204.315,665.163 203.5,666.5C 181.773,682.73 162.606,701.397 146,722.5C 149.99,720.088 154.157,718.088 158.5,716.5C 161.206,717.363 163.539,718.863 165.5,721C 164.445,722.507 163.445,724.007 162.5,725.5C 151.38,731.225 140.047,736.725 128.5,742C 99.9268,781.294 76.0934,823.461 57,868.5C 31.5491,939.326 19.8824,1012.33 22,1087.5C 22.3669,1093.2 23.0336,1098.87 24,1104.5C 31.3214,1100.79 38.8214,1100.62 46.5,1104C 51.3353,1105.91 55.6686,1108.58 59.5,1112C 87.6513,1143.45 111.485,1177.95 131,1215.5C 144.606,1243.04 157.939,1270.71 171,1298.5C 177.5,1313.17 183.167,1328.17 188,1343.5C 188.333,1347.83 188.667,1352.17 189,1356.5C 207.775,1368.47 227.275,1379.31 247.5,1389C 284.773,1404.65 322.439,1419.31 360.5,1433C 376.107,1439.8 391.441,1447.14 406.5,1455C 415.378,1462.97 421.545,1472.47 425,1483.5C 424.586,1483.96 424.086,1484.29 423.5,1484.5C 418.393,1479.14 413.393,1473.64 408.5,1468C 406.167,1466.33 403.833,1464.67 401.5,1463C 364.991,1457.5 329.324,1460.83 294.5,1473C 290.412,1475.03 286.745,1477.53 283.5,1480.5C 286.389,1488.34 290.055,1495.67 294.5,1502.5C 285.782,1500.12 279.449,1494.79 275.5,1486.5C 259.977,1504.26 255.31,1524.6 261.5,1547.5C 267.555,1550.07 273.889,1551.57 280.5,1552C 281.337,1553.01 281.67,1554.18 281.5,1555.5C 275.878,1556.55 270.211,1557.38 264.5,1558C 266.067,1560.98 267.734,1563.81 269.5,1566.5C 288.175,1591.35 312.175,1609.19 341.5,1620C 367.49,1628.99 393.49,1637.99 419.5,1647C 430.436,1651.47 440.77,1656.97 450.5,1663.5C 450.752,1655.83 450.085,1648.16 448.5,1640.5C 446.744,1619.7 445.077,1599.03 443.5,1578.5C 442.73,1563.99 441.73,1549.49 440.5,1535C 440.53,1532.58 440.863,1530.24 441.5,1528C 442.635,1527.25 443.635,1527.42 444.5,1528.5C 450.319,1562.42 455.819,1596.42 461,1630.5C 464.429,1650.54 468.929,1670.21 474.5,1689.5C 484.287,1743.36 502.12,1794.36 528,1842.5C 544.767,1868.32 564.601,1891.65 587.5,1912.5C 622.867,1947.04 664.2,1972.2 711.5,1988C 741.593,1996.6 772.259,1999.94 803.5,1998C 848.549,1995.13 891.882,1985.13 933.5,1968C 944.844,1962.66 955.844,1956.83 966.5,1950.5C 970.833,1947.83 975.167,1945.17 979.5,1942.5C 976.713,1946.96 977.713,1947.63 982.5,1944.5C 985.05,1945.94 987.716,1947.11 990.5,1948C 986.81,1948.42 986.643,1949.26 990,1950.5C 991.584,1949.14 993.418,1948.47 995.5,1948.5C 994.167,1949.83 992.833,1951.17 991.5,1952.5C 986.723,1955.06 982.056,1957.89 977.5,1961C 1009.61,1994.78 1046.94,2021.11 1089.5,2040C 1130.06,2054.74 1171.72,2059.07 1214.5,2053C 1275.72,2045.88 1331.39,2024.54 1381.5,1989C 1432.63,1950.88 1475.79,1905.38 1511,1852.5C 1525.73,1830.77 1540.06,1808.77 1554,1786.5C 1561.33,1773.17 1568.67,1759.83 1576,1746.5C 1605.24,1688.35 1634.24,1630.02 1663,1571.5C 1681.7,1528.22 1697.54,1483.89 1710.5,1438.5C 1738.92,1337.05 1768.09,1235.71 1798,1134.5C 1812.41,1091.04 1827.91,1048.04 1844.5,1005.5C 1846.41,1002.02 1848.07,998.35 1849.5,994.5C 1849.5,994.167 1849.5,993.833 1849.5,993.5C 1854.48,981.576 1859.48,969.576 1864.5,957.5C 1871.76,940.464 1881.43,924.964 1893.5,911C 1898.15,909.807 1902.32,910.64 1906,913.5C 1907.9,919.961 1907.4,926.294 1904.5,932.5C 1903.7,928.158 1902.87,923.824 1902,919.5C 1899.37,916.808 1897.03,917.141 1895,920.5C 1880.12,944.275 1868.45,969.608 1860,996.5C 1842,1046.84 1825,1097.51 1809,1148.5C 1787.12,1222.3 1765.95,1296.3 1745.5,1370.5C 1736.49,1402.52 1727.49,1434.52 1718.5,1466.5C 1726.77,1466.13 1734.1,1463.3 1740.5,1458C 1757.04,1441.38 1771.54,1423.22 1784,1403.5C 1796.27,1383.96 1807.27,1363.63 1817,1342.5C 1839.21,1294.53 1857.88,1245.2 1873,1194.5C 1890.11,1130.04 1902.78,1064.71 1911,998.5C 1911.94,991.194 1912.44,983.86 1912.5,976.5C 1914.94,952.541 1916.6,928.374 1917.5,904C 1916.29,865.592 1909.79,828.092 1898,791.5C 1887.05,752.98 1872.38,715.98 1854,680.5C 1845.41,666.313 1836.07,652.646 1826,639.5C 1800.64,608.803 1773.81,579.303 1745.5,551C 1744.91,550.536 1744.24,550.369 1743.5,550.5C 1743.2,549.85 1742.86,549.183 1742.5,548.5C 1744.08,547.702 1745.74,547.202 1747.5,547C 1744.28,546.722 1741.28,545.889 1738.5,544.5C 1730.22,539.021 1721.89,533.521 1713.5,528C 1711.62,526.457 1710.12,524.624 1709,522.5C 1693.38,436.938 1680.38,350.938 1670,264.5C 1666.13,242.301 1661.96,220.301 1657.5,198.5C 1657.93,190.886 1654.76,185.552 1648,182.5C 1645.12,183.376 1642.79,185.042 1641,187.5C 1625.44,219.678 1612.94,253.011 1603.5,287.5C 1600.83,296.496 1598.17,305.496 1595.5,314.5C 1592.08,324.245 1588.75,334.078 1585.5,344C 1591.97,361.588 1599.3,378.755 1607.5,395.5C 1618.04,423.24 1630.2,450.24 1644,476.5C 1645.33,478.996 1647.16,480.996 1649.5,482.5C 1651.73,484.229 1652.73,486.562 1652.5,489.5C 1646.19,489.097 1641.03,486.43 1637,481.5C 1626.03,465.216 1616.36,448.216 1608,430.5C 1558.53,320.605 1510.86,209.939 1465,98.5C 1457.27,82.0439 1449.27,65.7105 1441,49.5C 1435.33,38.8081 1429.16,28.4748 1422.5,18.5C 1419.69,15.8644 1416.69,13.3644 1413.5,11C 1409.4,7.71562 1405.57,7.88229 1402,11.5C 1397.71,17.0918 1395.37,23.4252 1395,30.5C 1385.6,114.958 1378.76,199.625 1374.5,284.5C 1368.74,353.296 1363.91,422.296 1360,491.5C 1381.17,512 1402.33,532.5 1423.5,553C 1429.11,558.304 1435.77,561.137 1443.5,561.5C 1443.5,562.5 1443.5,563.5 1443.5,564.5C 1438.8,568.088 1433.47,569.254 1427.5,568C 1423.24,566.066 1419.24,563.732 1415.5,561C 1373.16,523.987 1331.49,486.321 1290.5,448C 1277.56,436.545 1264.22,425.712 1250.5,415.5C 1247.67,413.252 1244.67,411.252 1241.5,409.5C 1243.55,409.294 1243.88,408.461 1242.5,407C 1245.29,405.093 1245.12,403.593 1242,402.5C 1234.45,402.845 1226.95,403.512 1219.5,404.5C 1222.02,399.486 1226.18,397.153 1232,397.5C 1238.13,397.825 1243.97,399.325 1249.5,402C 1264.36,411.598 1278.7,421.932 1292.5,433C 1309.98,447.646 1327.31,462.479 1344.5,477.5C 1354.66,347.864 1364.5,218.197 1374,88.5C 1377.14,65.6785 1381.14,43.0119 1386,20.5C 1388.67,11.0882 1394.17,4.08822 1402.5,-0.5 Z"/></g>
<g><path style="opacity:1" fill="#fcfdfd" d="M 1068.5,1384.5 C 1064.72,1388.03 1061.38,1392.03 1058.5,1396.5C 1046.3,1411.52 1031.3,1423.02 1013.5,1431C 1000.04,1436.82 986.037,1441.49 971.5,1445C 947.565,1451.05 924.231,1449.38 901.5,1440C 884.344,1430.61 876.677,1416.11 878.5,1396.5C 892.595,1379.57 907.928,1363.74 924.5,1349C 942.771,1332.69 963.437,1320.19 986.5,1311.5C 987.331,1317.81 987.831,1324.14 988,1330.5C 989.049,1331.52 990.216,1331.68 991.5,1331C 992.482,1324.1 993.982,1317.26 996,1310.5C 996.772,1309.15 997.939,1308.32 999.5,1308C 1018.11,1303.52 1035.11,1306.86 1050.5,1318C 1059.14,1324.45 1063.64,1332.95 1064,1343.5C 1058.3,1349.53 1052.3,1355.2 1046,1360.5C 1045.52,1361.45 1045.35,1362.45 1045.5,1363.5C 1053.47,1361.05 1060.63,1357.05 1067,1351.5C 1069.53,1362.42 1070.03,1373.42 1068.5,1384.5 Z"/></g>
<g><path style="opacity:1" fill="#94a5b0" d="M 1066.5,1281.5 C 1067.66,1290.99 1067.82,1300.66 1067,1310.5C 1062.42,1305.25 1057.26,1300.75 1051.5,1297C 1056.7,1291.96 1061.7,1286.8 1066.5,1281.5 Z"/></g>
<g><path style="opacity:1" fill="#ecf1f4" d="M 1912.5,976.5 C 1912.44,983.86 1911.94,991.194 1911,998.5C 1902.78,1064.71 1890.11,1130.04 1873,1194.5C 1857.88,1245.2 1839.21,1294.53 1817,1342.5C 1807.27,1363.63 1796.27,1383.96 1784,1403.5C 1771.54,1423.22 1757.04,1441.38 1740.5,1458C 1734.1,1463.3 1726.77,1466.13 1718.5,1466.5C 1727.49,1434.52 1736.49,1402.52 1745.5,1370.5C 1746.14,1371.1 1746.47,1371.93 1746.5,1373C 1742.96,1392.37 1739.29,1411.7 1735.5,1431C 1735.83,1432.17 1736.17,1433.33 1736.5,1434.5C 1748.81,1424.36 1760.64,1413.69 1772,1402.5C 1779.56,1391.74 1786.89,1380.74 1794,1369.5C 1801.16,1350.72 1809.49,1332.39 1819,1314.5C 1825.28,1295.15 1833.28,1276.48 1843,1258.5C 1849.92,1237.74 1857.26,1217.07 1865,1196.5C 1867.54,1187.88 1869.87,1179.22 1872,1170.5C 1880.46,1123.86 1888.8,1077.19 1897,1030.5C 1901.44,1011.64 1906.44,992.973 1912,974.5C 1912.46,975.094 1912.63,975.761 1912.5,976.5 Z"/></g>
<g><path style="opacity:1" fill="#bbd1e1" d="M 1469.5,991.5 C 1469.62,993.199 1469.95,994.865 1470.5,996.5C 1470.08,997.672 1469.41,998.672 1468.5,999.5C 1469.52,1000.35 1470.36,1001.35 1471,1002.5C 1471.67,997.167 1472.33,997.167 1473,1002.5C 1473.67,1001.17 1474.33,1001.17 1475,1002.5C 1475.62,1001.55 1475.45,1000.72 1474.5,1000C 1597.5,999.5 1720.5,999.333 1843.5,999.5C 1843.83,1001.5 1844.17,1003.5 1844.5,1005.5C 1827.91,1048.04 1812.41,1091.04 1798,1134.5C 1768.09,1235.71 1738.92,1337.05 1710.5,1438.5C 1710.28,1435.9 1709.78,1435.9 1709,1438.5C 1701.46,1456.93 1694.46,1475.59 1688,1494.5C 1674.37,1521.35 1661.87,1548.85 1650.5,1577C 1643.21,1590.08 1636.38,1603.24 1630,1616.5C 1622.09,1636.24 1613.43,1655.57 1604,1674.5C 1599.67,1681.17 1595.33,1687.83 1591,1694.5C 1584.75,1707.91 1577.75,1720.91 1570,1733.5C 1553.87,1758.62 1538.2,1783.95 1523,1809.5C 1508.46,1827.27 1493.46,1844.61 1478,1861.5C 1464.71,1879.12 1451.05,1896.45 1437,1913.5C 1424.63,1925.26 1411.8,1936.42 1398.5,1947C 1387.46,1959.37 1375.13,1970.37 1361.5,1980C 1343.99,1989.59 1326.32,1998.92 1308.5,2008C 1291.07,2014.37 1274.07,2021.7 1257.5,2030C 1239.51,2032.5 1221.51,2034.83 1203.5,2037C 1175.57,2037.25 1147.9,2034.58 1120.5,2029C 1089,2018.91 1059.66,2004.58 1032.5,1986C 1027.39,1981.46 1022.72,1976.46 1018.5,1971C 1011.19,1966.02 1004.19,1960.69 997.5,1955C 995.783,1953.44 993.783,1952.61 991.5,1952.5C 992.833,1951.17 994.167,1949.83 995.5,1948.5C 1001.45,1945.18 1007.12,1941.35 1012.5,1937C 1052.7,1899.8 1091.2,1860.97 1128,1820.5C 1134.67,1811.83 1141.33,1803.17 1148,1794.5C 1173.31,1827.75 1206.81,1847.59 1248.5,1854C 1287.81,1861.37 1326.15,1858.03 1363.5,1844C 1410.17,1822.49 1426.34,1786.99 1412,1737.5C 1401.27,1713.6 1384.44,1695.27 1361.5,1682.5C 1375.18,1655.29 1384.35,1626.62 1389,1596.5C 1401.77,1500.43 1412.11,1404.1 1420,1307.5C 1431.44,1201.23 1447.94,1095.89 1469.5,991.5 Z"/></g>
<g><path style="opacity:1" fill="#fcdb60" d="M 30.5,1111.5 C 40.6591,1112.5 49.6591,1116.33 57.5,1123C 63.6667,1129.17 69.8333,1135.33 76,1141.5C 117.474,1198.77 149.808,1261.11 173,1328.5C 175.462,1335.34 176.795,1342.34 177,1349.5C 139.667,1325.5 109,1294.83 85,1257.5C 69.1782,1232.86 55.1782,1207.19 43,1180.5C 36.8336,1164.17 31.8336,1147.5 28,1130.5C 26.8376,1125.87 26.5042,1121.21 27,1116.5C 27.9973,1114.68 29.1639,1113.01 30.5,1111.5 Z"/></g>
<g><path style="opacity:1" fill="#bbd1e2" d="M 1849.5,993.5 C 1849.5,993.833 1849.5,994.167 1849.5,994.5C 1847.32,996.164 1845.49,995.83 1844,993.5C 1843.51,994.793 1843.34,996.127 1843.5,997.5C 1720.83,997.5 1598.17,997.5 1475.5,997.5C 1474.96,994.187 1474.46,990.854 1474,987.5C 1471.87,986.603 1471.37,985.269 1472.5,983.5C 1474.32,987.102 1475.32,987.102 1475.5,983.5C 1600.83,983.5 1726.17,983.5 1851.5,983.5C 1851.5,984.5 1851.5,985.5 1851.5,986.5C 1848.83,986.5 1846.17,986.5 1843.5,986.5C 1843.5,987.5 1843.5,988.5 1843.5,989.5C 1720.83,989.167 1598.16,989.5 1475.5,990.5C 1598.54,991.168 1721.54,991.835 1844.5,992.5C 1846.63,988.704 1848.3,989.037 1849.5,993.5 Z"/></g>
<g><path style="opacity:1" fill="#fedc60" d="M 975.5,984.5 C 976.83,991.133 977.497,998.133 977.5,1005.5C 976.58,1041.54 971.413,1076.88 962,1111.5C 958.514,1123.21 954.348,1134.71 949.5,1146C 945.853,1158.13 942.353,1170.29 939,1182.5C 934.502,1193.81 930.002,1205.15 925.5,1216.5C 921.883,1228.83 918.383,1241.16 915,1253.5C 912.961,1256.27 911.295,1259.27 910,1262.5C 908.543,1268.79 906.71,1274.96 904.5,1281C 901.346,1286.96 898.68,1293.13 896.5,1299.5C 893.556,1303.05 891.39,1307.05 890,1311.5C 886.576,1315.25 883.576,1319.25 881,1323.5C 877.194,1333.77 872.36,1343.44 866.5,1352.5C 863.269,1350.78 860.436,1348.45 858,1345.5C 848.653,1332.81 841.986,1318.81 838,1303.5C 832.649,1280.72 831.316,1257.72 834,1234.5C 841.69,1147.98 875.19,1073.48 934.5,1011C 946.862,1000.15 960.529,991.319 975.5,984.5 Z"/></g>
<g><path style="opacity:1" fill="#bad1df" d="M 1864.5,957.5 C 1859.48,969.576 1854.48,981.576 1849.5,993.5C 1848.3,989.037 1846.63,988.704 1844.5,992.5C 1721.54,991.835 1598.54,991.168 1475.5,990.5C 1598.16,989.5 1720.83,989.167 1843.5,989.5C 1843.5,988.5 1843.5,987.5 1843.5,986.5C 1846.17,986.5 1848.83,986.5 1851.5,986.5C 1851.5,985.5 1851.5,984.5 1851.5,983.5C 1726.17,983.5 1600.83,983.5 1475.5,983.5C 1475.32,987.102 1474.32,987.102 1472.5,983.5C 1471.37,985.269 1471.87,986.603 1474,987.5C 1474.46,990.854 1474.96,994.187 1475.5,997.5C 1598.17,997.5 1720.83,997.5 1843.5,997.5C 1843.34,996.127 1843.51,994.793 1844,993.5C 1845.49,995.83 1847.32,996.164 1849.5,994.5C 1848.07,998.35 1846.41,1002.02 1844.5,1005.5C 1844.17,1003.5 1843.83,1001.5 1843.5,999.5C 1720.5,999.333 1597.5,999.5 1474.5,1000C 1475.45,1000.72 1475.62,1001.55 1475,1002.5C 1474.33,1001.17 1473.67,1001.17 1473,1002.5C 1472.33,997.167 1471.67,997.167 1471,1002.5C 1470.36,1001.35 1469.52,1000.35 1468.5,999.5C 1469.41,998.672 1470.08,997.672 1470.5,996.5C 1469.95,994.865 1469.62,993.199 1469.5,991.5C 1470.09,984.891 1471.42,978.558 1473.5,972.5C 1473.41,975.739 1474.08,978.739 1475.5,981.5C 1600.83,981.5 1726.17,981.5 1851.5,981.5C 1851.5,979.5 1851.5,977.5 1851.5,975.5C 1350.17,974.833 1350.17,974.167 1851.5,973.5C 1852.05,969.661 1853.05,969.661 1854.5,973.5C 1852.34,975.093 1852.17,976.76 1854,978.5C 1856.38,974.777 1856.54,971.11 1854.5,967.5C 1728.34,967.504 1602.01,967.504 1475.5,967.5C 1475.77,969.38 1475.1,970.713 1473.5,971.5C 1473.68,968.273 1474.34,965.273 1475.5,962.5C 1475.5,963.5 1475.5,964.5 1475.5,965.5C 1601.64,966.162 1727.64,965.496 1853.5,963.5C 1853.67,964.397 1854,965.397 1854.5,966.5C 1856.41,965.652 1858.41,965.318 1860.5,965.5C 1860.85,963.131 1861.02,960.797 1861,958.5C 1735.24,959.832 1609.4,959.832 1483.5,958.5C 1609.4,957.832 1735.24,957.166 1861,956.5C 1862.01,957.337 1863.18,957.67 1864.5,957.5 Z"/></g>
<g><path style="opacity:1" fill="#e2b349" d="M 866.5,1352.5 C 872.36,1343.44 877.194,1333.77 881,1323.5C 883.576,1319.25 886.576,1315.25 890,1311.5C 891.39,1307.05 893.556,1303.05 896.5,1299.5C 898.68,1293.13 901.346,1286.96 904.5,1281C 906.71,1274.96 908.543,1268.79 910,1262.5C 911.295,1259.27 912.961,1256.27 915,1253.5C 918.383,1241.16 921.883,1228.83 925.5,1216.5C 930.002,1205.15 934.502,1193.81 939,1182.5C 942.353,1170.29 945.853,1158.13 949.5,1146C 954.348,1134.71 958.514,1123.21 962,1111.5C 971.413,1076.88 976.58,1041.54 977.5,1005.5C 977.497,998.133 976.83,991.133 975.5,984.5C 984.126,979.841 993.459,977.341 1003.5,977C 1037.4,974.193 1060.23,988.693 1072,1020.5C 1080.02,1045.93 1082.69,1071.93 1080,1098.5C 1078.62,1167.61 1060.46,1231.77 1025.5,1291C 987.964,1291.51 955.298,1304.17 927.5,1329C 917.47,1338.7 907.803,1348.7 898.5,1359C 891.833,1359.67 885.167,1359.67 878.5,1359C 873.712,1358.11 869.712,1355.94 866.5,1352.5 Z"/></g>
<g><path style="opacity:1" fill="#bbd1e2" d="M 1473.5,972.5 C 1473.5,972.167 1473.5,971.833 1473.5,971.5C 1475.1,970.713 1475.77,969.38 1475.5,967.5C 1602.01,967.504 1728.34,967.504 1854.5,967.5C 1856.54,971.11 1856.38,974.777 1854,978.5C 1852.17,976.76 1852.34,975.093 1854.5,973.5C 1853.05,969.661 1852.05,969.661 1851.5,973.5C 1350.17,974.167 1350.17,974.833 1851.5,975.5C 1851.5,977.5 1851.5,979.5 1851.5,981.5C 1726.17,981.5 1600.83,981.5 1475.5,981.5C 1474.08,978.739 1473.41,975.739 1473.5,972.5 Z"/></g>
<g><path style="opacity:1" fill="#edf1f5" d="M 985.5,655.5 C 997.094,664.922 1008.26,674.922 1019,685.5C 1037.13,705.294 1054.13,725.96 1070,747.5C 1102.3,793.665 1124.96,844.332 1138,899.5C 1147.82,939.991 1150.82,980.991 1147,1022.5C 1138.59,1083.38 1122.26,1142.05 1098,1198.5C 1086.73,1224.08 1072.23,1247.41 1054.5,1268.5C 1053.43,1267.75 1053.26,1266.75 1054,1265.5C 1059.04,1257.08 1063.7,1248.41 1068,1239.5C 1074.22,1221.57 1080.89,1203.91 1088,1186.5C 1093.39,1178.38 1097.73,1169.71 1101,1160.5C 1107.5,1139.31 1113.5,1117.98 1119,1096.5C 1122.79,1067.79 1126.79,1039.12 1131,1010.5C 1132.49,970.259 1130.16,930.259 1124,890.5C 1115.35,852.805 1100.35,818.138 1079,786.5C 1062.82,757.448 1045.15,729.448 1026,702.5C 1011.81,686.974 997.638,671.474 983.5,656C 984.094,655.536 984.761,655.369 985.5,655.5 Z"/></g>
<g><path style="opacity:1" fill="#bbd1e1" d="M 1743.5,550.5 C 1744.24,550.369 1744.91,550.536 1745.5,551C 1773.81,579.303 1800.64,608.803 1826,639.5C 1836.07,652.646 1845.41,666.313 1854,680.5C 1872.38,715.98 1887.05,752.98 1898,791.5C 1909.79,828.092 1916.29,865.592 1917.5,904C 1916.6,928.374 1914.94,952.541 1912.5,976.5C 1912.63,975.761 1912.46,975.094 1912,974.5C 1906.44,992.973 1901.44,1011.64 1897,1030.5C 1888.8,1077.19 1880.46,1123.86 1872,1170.5C 1869.87,1179.22 1867.54,1187.88 1865,1196.5C 1857.26,1217.07 1849.92,1237.74 1843,1258.5C 1833.28,1276.48 1825.28,1295.15 1819,1314.5C 1809.49,1332.39 1801.16,1350.72 1794,1369.5C 1786.89,1380.74 1779.56,1391.74 1772,1402.5C 1760.64,1413.69 1748.81,1424.36 1736.5,1434.5C 1736.17,1433.33 1735.83,1432.17 1735.5,1431C 1739.29,1411.7 1742.96,1392.37 1746.5,1373C 1746.47,1371.93 1746.14,1371.1 1745.5,1370.5C 1765.95,1296.3 1787.12,1222.3 1809,1148.5C 1825,1097.51 1842,1046.84 1860,996.5C 1868.45,969.608 1880.12,944.275 1895,920.5C 1897.03,917.141 1899.37,916.808 1902,919.5C 1902.87,923.824 1903.7,928.158 1904.5,932.5C 1907.4,926.294 1907.9,919.961 1906,913.5C 1902.32,910.64 1898.15,909.807 1893.5,911C 1881.43,924.964 1871.76,940.464 1864.5,957.5C 1863.18,957.67 1862.01,957.337 1861,956.5C 1735.24,957.166 1609.4,957.832 1483.5,958.5C 1609.4,959.832 1735.24,959.832 1861,958.5C 1861.02,960.797 1860.85,963.131 1860.5,965.5C 1858.41,965.318 1856.41,965.652 1854.5,966.5C 1854,965.397 1853.67,964.397 1853.5,963.5C 1727.64,965.496 1601.64,966.162 1475.5,965.5C 1475.5,964.5 1475.5,963.5 1475.5,962.5C 1486.58,910.085 1499.41,858.085 1514,806.5C 1535.79,737.546 1570.46,676.213 1618,622.5C 1643.87,594.619 1673.7,572.119 1707.5,555C 1719.17,551.048 1731.17,549.548 1743.5,550.5 Z"/></g>
<g><path style="opacity:1" fill="#3ab4ab" d="M 1131.5,783.5 C 1136.9,804.206 1140.9,825.206 1143.5,846.5C 1137.93,832.551 1132.26,818.551 1126.5,804.5C 1128.35,797.442 1130.02,790.442 1131.5,783.5 Z"/></g>
<g><path style="opacity:1" fill="#bacfde" d="M 1113.5,713.5 C 1116.02,727.921 1119.35,742.254 1123.5,756.5C 1123.75,757.713 1124.41,758.38 1125.5,758.5C 1122.96,767.618 1120.13,776.618 1117,785.5C 1110.92,774.337 1104.59,763.337 1098,752.5C 1100.51,738.463 1105.68,725.463 1113.5,713.5 Z"/></g>
<g><path style="opacity:1" fill="#79c7c2" d="M 203.5,666.5 C 203.938,666.435 204.272,666.601 204.5,667C 198.754,678.568 193.587,690.401 189,702.5C 186.108,705.057 182.941,707.224 179.5,709C 172.219,711.059 165.219,713.559 158.5,716.5C 154.157,718.088 149.99,720.088 146,722.5C 162.606,701.397 181.773,682.73 203.5,666.5 Z"/></g>
<g><path style="opacity:1" fill="#bbd1e1" d="M 835.5,616.5 C 873.512,613.336 910.846,617.503 947.5,629C 961.107,636.624 973.773,645.457 985.5,655.5C 984.761,655.369 984.094,655.536 983.5,656C 997.638,671.474 1011.81,686.974 1026,702.5C 1045.15,729.448 1062.82,757.448 1079,786.5C 1100.35,818.138 1115.35,852.805 1124,890.5C 1130.16,930.259 1132.49,970.259 1131,1010.5C 1126.79,1039.12 1122.79,1067.79 1119,1096.5C 1113.5,1117.98 1107.5,1139.31 1101,1160.5C 1097.73,1169.71 1093.39,1178.38 1088,1186.5C 1080.89,1203.91 1074.22,1221.57 1068,1239.5C 1063.7,1248.41 1059.04,1257.08 1054,1265.5C 1053.26,1266.75 1053.43,1267.75 1054.5,1268.5C 1048.92,1276.25 1042.75,1283.59 1036,1290.5C 1035.83,1290.17 1035.67,1289.83 1035.5,1289.5C 1048.51,1265.29 1059.68,1240.29 1069,1214.5C 1082.5,1168.33 1089.33,1121.16 1089.5,1073C 1089.62,1054.47 1087.12,1036.31 1082,1018.5C 1075.68,997.52 1062.85,982.02 1043.5,972C 1021.59,963.576 999.586,963.41 977.5,971.5C 976.991,906.271 965.658,843.104 943.5,782C 941.455,777.455 939.288,772.955 937,768.5C 934.18,758.38 931.18,748.38 928,738.5C 917.142,713.117 905.475,688.117 893,663.5C 880.913,648.308 869.08,632.975 857.5,617.5C 850.197,616.503 842.863,616.169 835.5,616.5 Z"/></g>
<g><path style="opacity:1" fill="#f8f9fa" d="M 1125.5,758.5 C 1124.41,758.38 1123.75,757.713 1123.5,756.5C 1119.35,742.254 1116.02,727.921 1113.5,713.5C 1137.56,670.774 1171.23,637.774 1214.5,614.5C 1215.76,616.353 1215.76,618.186 1214.5,620C 1203.74,628.087 1193.58,636.92 1184,646.5C 1156.39,679.379 1136.89,716.712 1125.5,758.5 Z"/></g>
<g><path style="opacity:1" fill="#3ab5ac" d="M 803.5,567.5 C 813.275,569.527 822.941,572.027 832.5,575C 858.034,584.62 883.034,595.287 907.5,607C 886.581,605.035 865.581,604.202 844.5,604.5C 838.254,599.366 832.921,593.366 828.5,586.5C 825.126,583.49 821.792,580.49 818.5,577.5C 812.918,574.887 807.918,571.554 803.5,567.5 Z"/></g>
<g><path style="opacity:1" fill="#81cdc7" d="M 803.5,567.5 C 807.918,571.554 812.918,574.887 818.5,577.5C 821.792,580.49 825.126,583.49 828.5,586.5C 832.921,593.366 838.254,599.366 844.5,604.5C 817.558,606.467 790.725,609.8 764,614.5C 755.86,612.352 751.194,607.019 750,598.5C 748.846,583.855 748.346,569.189 748.5,554.5C 767.218,557.765 785.551,562.098 803.5,567.5 Z"/></g>
<g><path style="opacity:1" fill="#81ccc7" d="M 531.5,547.5 C 536.179,547.334 540.845,547.501 545.5,548C 516.383,565.109 490.883,586.609 469,612.5C 433.592,655.287 404.759,702.287 382.5,753.5C 381.277,754.614 379.944,754.781 378.5,754C 374.182,750.685 371.015,746.519 369,741.5C 362.974,724.017 359.307,706.017 358,687.5C 353.155,654.896 356.488,623.229 368,592.5C 371.277,585.112 376.11,578.945 382.5,574C 431.632,561.49 481.299,552.656 531.5,547.5 Z"/></g>
<g><path style="opacity:1" fill="#fdfdfe" d="M 835.5,616.5 C 842.863,616.169 850.197,616.503 857.5,617.5C 869.08,632.975 880.913,648.308 893,663.5C 905.475,688.117 917.142,713.117 928,738.5C 931.18,748.38 934.18,758.38 937,768.5C 939.288,772.955 941.455,777.455 943.5,782C 965.658,843.104 976.991,906.271 977.5,971.5C 968.766,976.038 960.099,980.871 951.5,986C 939.147,994.345 927.98,1004.18 918,1015.5C 861.23,1084.1 829.563,1163.1 823,1252.5C 821.938,1270.74 823.605,1288.74 828,1306.5C 832.846,1328.21 843.346,1346.54 859.5,1361.5C 856.974,1367.23 854.141,1372.9 851,1378.5C 846.585,1384.73 842.418,1391.07 838.5,1397.5C 836.087,1398.68 835.087,1400.68 835.5,1403.5C 838.206,1403.42 840.873,1403.09 843.5,1402.5C 853.74,1409.95 861.907,1419.29 868,1430.5C 871.964,1439.15 875.964,1447.81 880,1456.5C 882.513,1464.22 885.179,1471.88 888,1479.5C 892.716,1500.22 895.382,1521.22 896,1542.5C 897,1546.5 898,1550.5 899,1554.5C 900.612,1571.51 902.278,1588.51 904,1605.5C 905.626,1629.9 900.293,1652.57 888,1673.5C 880.135,1681.03 872.635,1688.86 865.5,1697C 862.727,1698.48 860.06,1700.15 857.5,1702C 846.916,1710.76 836.916,1719.93 827.5,1729.5C 808.735,1741.06 789.402,1751.89 769.5,1762C 739.22,1773.04 707.887,1778.71 675.5,1779C 614.183,1783.09 558.516,1767.76 508.5,1733C 495.21,1719.9 483.876,1705.4 474.5,1689.5C 468.929,1670.21 464.429,1650.54 461,1630.5C 455.819,1596.42 450.319,1562.42 444.5,1528.5C 443.635,1527.42 442.635,1527.25 441.5,1528C 440.863,1530.24 440.53,1532.58 440.5,1535C 441.73,1549.49 442.73,1563.99 443.5,1578.5C 443.808,1580.92 443.474,1583.26 442.5,1585.5C 437.916,1586.79 433.582,1588.63 429.5,1591C 402.655,1592.64 375.988,1591.31 349.5,1587C 329.143,1581.83 308.81,1576.66 288.5,1571.5C 286.105,1570.19 283.605,1570.19 281,1571.5C 277.149,1568.85 273.316,1567.18 269.5,1566.5C 267.734,1563.81 266.067,1560.98 264.5,1558C 270.211,1557.38 275.878,1556.55 281.5,1555.5C 281.67,1554.18 281.337,1553.01 280.5,1552C 273.889,1551.57 267.555,1550.07 261.5,1547.5C 255.31,1524.6 259.977,1504.26 275.5,1486.5C 279.449,1494.79 285.782,1500.12 294.5,1502.5C 290.055,1495.67 286.389,1488.34 283.5,1480.5C 286.745,1477.53 290.412,1475.03 294.5,1473C 329.324,1460.83 364.991,1457.5 401.5,1463C 403.833,1464.67 406.167,1466.33 408.5,1468C 413.393,1473.64 418.393,1479.14 423.5,1484.5C 424.086,1484.29 424.586,1483.96 425,1483.5C 421.545,1472.47 415.378,1462.97 406.5,1455C 391.441,1447.14 376.107,1439.8 360.5,1433C 322.439,1419.31 284.773,1404.65 247.5,1389C 227.275,1379.31 207.775,1368.47 189,1356.5C 188.667,1352.17 188.333,1347.83 188,1343.5C 183.167,1328.17 177.5,1313.17 171,1298.5C 157.939,1270.71 144.606,1243.04 131,1215.5C 111.485,1177.95 87.6513,1143.45 59.5,1112C 55.6686,1108.58 51.3353,1105.91 46.5,1104C 38.8214,1100.62 31.3214,1100.79 24,1104.5C 23.0336,1098.87 22.3669,1093.2 22,1087.5C 19.8824,1012.33 31.5491,939.326 57,868.5C 76.0934,823.461 99.9268,781.294 128.5,742C 140.047,736.725 151.38,731.225 162.5,725.5C 174.656,721.842 185.156,715.508 194,706.5C 199.186,695.953 204.186,685.287 209,674.5C 213.667,667.167 218.333,659.833 223,652.5C 265.241,620.519 311.741,596.686 362.5,581C 354.495,595.836 349.328,611.669 347,628.5C 343.41,660.45 346.41,691.783 356,722.5C 358.72,735.437 364.22,746.937 372.5,757C 378.686,762.111 384.186,761.611 389,755.5C 394.651,744.198 400.318,732.864 406,721.5C 426.694,687.438 449.361,654.772 474,623.5C 501.475,588.522 535.641,562.355 576.5,545C 630.512,540.029 684.178,542.529 737.5,552.5C 738.361,569.002 740.528,585.336 744,601.5C 745.393,605.286 747.059,608.952 749,612.5C 752.416,617.744 757.25,620.744 763.5,621.5C 787.392,618.505 811.392,616.838 835.5,616.5 Z"/></g>
<g><path style="opacity:1" fill="#0b0a0a" d="M 487.5,1084.5 C 507.818,1084.34 527.985,1085.68 548,1088.5C 548.667,1089.83 548.667,1091.17 548,1092.5C 546.431,1093.71 545.598,1095.38 545.5,1097.5C 548.886,1127.81 552.052,1158.15 555,1188.5C 557.868,1228.22 552.868,1266.89 540,1304.5C 532.254,1321.25 519.421,1331.75 501.5,1336C 477.039,1339.53 454.039,1335.2 432.5,1323C 408.712,1308.21 389.212,1289.05 374,1265.5C 362.611,1240.67 351.611,1215.67 341,1190.5C 336.166,1178.81 329.832,1168.15 322,1158.5C 308.925,1155.08 298.258,1148.08 290,1137.5C 287.646,1133.8 286.146,1129.8 285.5,1125.5C 279.627,1126.23 273.794,1127.23 268,1128.5C 263.289,1128.36 262.455,1126.53 265.5,1123C 271.167,1120.67 276.833,1118.33 282.5,1116C 325.155,1105.67 368.155,1097 411.5,1090C 436.935,1087.39 462.268,1085.55 487.5,1084.5 Z"/></g>
<g><path style="opacity:1" fill="#e57f8f" d="M 532.5,1292.5 C 527.757,1309.74 516.757,1320.91 499.5,1326C 479.212,1328.06 459.878,1324.73 441.5,1316C 416.336,1301.34 396.336,1281.5 381.5,1256.5C 381.351,1255.45 381.517,1254.45 382,1253.5C 389.16,1254.4 396.327,1255.56 403.5,1257C 407.508,1259.16 410.174,1262.33 411.5,1266.5C 412.552,1266.35 413.552,1266.52 414.5,1267C 421.427,1274.46 429.427,1280.46 438.5,1285C 448.037,1288.93 457.703,1292.6 467.5,1296C 480.799,1297.5 494.133,1297.83 507.5,1297C 515.921,1295.69 524.088,1293.52 532,1290.5C 532.464,1291.09 532.631,1291.76 532.5,1292.5 Z"/></g>
<g><path style="opacity:1" fill="#62343a" d="M 355.5,1159.5 C 347.5,1160.17 339.5,1160.83 331.5,1161.5C 330.711,1161.22 330.044,1160.72 329.5,1160C 338.16,1159.5 346.827,1159.33 355.5,1159.5 Z"/></g>
<g><path style="opacity:1" fill="#ba616b" d="M 532.5,1292.5 C 532.631,1291.76 532.464,1291.09 532,1290.5C 524.088,1293.52 515.921,1295.69 507.5,1297C 494.133,1297.83 480.799,1297.5 467.5,1296C 457.703,1292.6 448.037,1288.93 438.5,1285C 429.427,1280.46 421.427,1274.46 414.5,1267C 413.552,1266.52 412.552,1266.35 411.5,1266.5C 410.174,1262.33 407.508,1259.16 403.5,1257C 396.327,1255.56 389.16,1254.4 382,1253.5C 381.517,1254.45 381.351,1255.45 381.5,1256.5C 368.884,1233.6 357.05,1210.27 346,1186.5C 341.648,1177.78 336.815,1169.45 331.5,1161.5C 339.5,1160.83 347.5,1160.17 355.5,1159.5C 389.364,1157.4 421.364,1148.57 451.5,1133C 465.391,1124.06 472.057,1111.22 471.5,1094.5C 494.12,1092.78 516.787,1092.11 539.5,1092.5C 543.412,1139.75 544.912,1187.09 544,1234.5C 542.924,1254.52 539.091,1273.85 532.5,1292.5 Z"/></g>
<g><path style="opacity:1" fill="#b1b1b1" d="M 449.5,1121.5 C 451.012,1118.66 452.012,1115.66 452.5,1112.5C 452.592,1108.42 450.592,1105.92 446.5,1105C 418.21,1103.9 390.543,1107.57 363.5,1116C 352.243,1118.43 340.91,1120.43 329.5,1122C 317.75,1125.35 306.083,1128.52 294.5,1131.5C 292.572,1129.4 291.905,1127.07 292.5,1124.5C 349.406,1110.12 407.073,1100.12 465.5,1094.5C 466.111,1099.62 464.944,1104.29 462,1108.5C 458.33,1113.34 454.164,1117.67 449.5,1121.5 Z"/></g>
<g><path style="opacity:1" fill="#f5f5f5" d="M 449.5,1121.5 C 410.554,1143.06 368.887,1151.89 324.5,1148C 316.529,1145.79 308.862,1142.79 301.5,1139C 298.283,1137.28 295.95,1134.78 294.5,1131.5C 306.083,1128.52 317.75,1125.35 329.5,1122C 340.91,1120.43 352.243,1118.43 363.5,1116C 390.543,1107.57 418.21,1103.9 446.5,1105C 450.592,1105.92 452.592,1108.42 452.5,1112.5C 452.012,1115.66 451.012,1118.66 449.5,1121.5 Z"/></g>
<g><path style="opacity:1" fill="#0c0c0c" d="M 342.5,1053.5 C 348.631,1053.36 354.631,1054.19 360.5,1056C 364.729,1059.84 364.395,1063.18 359.5,1066C 351.463,1067.67 343.463,1069 335.5,1070C 332.793,1068.14 331.959,1065.64 333,1062.5C 335.406,1058.59 338.572,1055.59 342.5,1053.5 Z"/></g>
<g><path style="opacity:1" fill="#c9cacb" d="M 222.5,946.5 C 223.66,958.993 223.827,971.66 223,984.5C 222.809,986.708 222.309,988.708 221.5,990.5C 222.351,975.851 222.685,961.184 222.5,946.5 Z"/></g>
<g><path style="opacity:1" fill="#0b0b0b" d="M 222.5,946.5 C 222.685,961.184 222.351,975.851 221.5,990.5C 219.659,1017.22 212.826,1042.55 201,1066.5C 195.677,1074.97 189.51,1082.8 182.5,1090C 170.571,1099.86 156.904,1103.86 141.5,1102C 117.941,1091.75 103.774,1073.92 99,1048.5C 90.4378,1001.24 94.7711,955.241 112,910.5C 120.773,888.063 135.606,870.897 156.5,859C 169.235,854.767 180.902,856.767 191.5,865C 202.41,874.65 209.91,886.484 214,900.5C 218.668,915.507 221.501,930.841 222.5,946.5 Z"/></g>
<g><path style="opacity:1" fill="#706f71" d="M 205.5,1037.5 C 199.107,1057.13 188.107,1073.63 172.5,1087C 156.918,1095.28 142.252,1094.11 128.5,1083.5C 130.304,1082.84 132.304,1082.5 134.5,1082.5C 138.828,1083.36 143.161,1083.86 147.5,1084C 156.756,1081.27 165.756,1077.77 174.5,1073.5C 179.766,1068.01 185.266,1062.68 191,1057.5C 194.285,1052.55 197.952,1047.88 202,1043.5C 202.667,1041.5 203.333,1039.5 204,1037.5C 204.69,1036.26 205.19,1036.26 205.5,1037.5 Z"/></g>
<g><path style="opacity:1" fill="#47464a" d="M 205.5,1037.5 C 205.19,1036.26 204.69,1036.26 204,1037.5C 203.333,1039.5 202.667,1041.5 202,1043.5C 197.952,1047.88 194.285,1052.55 191,1057.5C 185.266,1062.68 179.766,1068.01 174.5,1073.5C 165.756,1077.77 156.756,1081.27 147.5,1084C 143.161,1083.86 138.828,1083.36 134.5,1082.5C 132.304,1082.5 130.304,1082.84 128.5,1083.5C 122.831,1080 118.331,1075.33 115,1069.5C 108.965,1055.7 104.632,1041.36 102,1026.5C 99.6441,997.425 101.977,968.758 109,940.5C 111.172,932.804 114.005,925.47 117.5,918.5C 118.864,929.901 123.864,939.234 132.5,946.5C 125.735,969.964 123.235,993.964 125,1018.5C 126.598,1028.29 129.598,1037.63 134,1046.5C 141.096,1055.39 149.596,1056.89 159.5,1051C 170.405,1039.42 177.905,1025.92 182,1010.5C 186.229,990.373 187.563,970.04 186,949.5C 185.665,945.264 184.832,941.264 183.5,937.5C 195.35,912.881 189.017,894.714 164.5,883C 155.295,880.574 146.295,881.074 137.5,884.5C 147.726,872.394 160.726,867.561 176.5,870C 187.583,874.749 195.75,882.583 201,893.5C 214.229,924.548 218.896,956.881 215,990.5C 213.627,1006.67 210.46,1022.33 205.5,1037.5 Z"/></g>
<g><path style="opacity:1" fill="#010101" d="M 183.5,937.5 C 184.832,941.264 185.665,945.264 186,949.5C 187.563,970.04 186.229,990.373 182,1010.5C 177.905,1025.92 170.405,1039.42 159.5,1051C 149.596,1056.89 141.096,1055.39 134,1046.5C 129.598,1037.63 126.598,1028.29 125,1018.5C 123.235,993.964 125.735,969.964 132.5,946.5C 151.84,956.333 168.84,953.333 183.5,937.5 Z"/></g>
<g><path style="opacity:1" fill="#fcfcfc" d="M 183.5,937.5 C 168.84,953.333 151.84,956.333 132.5,946.5C 123.864,939.234 118.864,929.901 117.5,918.5C 122.138,905.877 128.805,894.544 137.5,884.5C 146.295,881.074 155.295,880.574 164.5,883C 189.017,894.714 195.35,912.881 183.5,937.5 Z"/></g>
<g><path style="opacity:1" fill="#0b0b0c" d="M 680.5,787.5 C 719.406,787.532 749.239,803.865 770,836.5C 789.031,867.925 800.698,901.925 805,938.5C 805.809,958.035 804.142,977.368 800,996.5C 791.778,1023.39 774.944,1042.89 749.5,1055C 714.303,1064.83 683.803,1056.66 658,1030.5C 649.004,1021.17 642.004,1010.5 637,998.5C 620.265,959.491 613.598,918.824 617,876.5C 618.842,841.629 634.008,814.462 662.5,795C 668.485,792.166 674.485,789.666 680.5,787.5 Z"/></g>
<g><path style="opacity:1" fill="#717072" d="M 796.5,935.5 C 797.427,958.234 794.927,980.567 789,1002.5C 772.64,1034.76 746.473,1050.09 710.5,1048.5C 710.5,1047.5 710.5,1046.5 710.5,1045.5C 713.187,1045.66 715.854,1045.5 718.5,1045C 739.054,1038.14 756.554,1026.64 771,1010.5C 783.982,990.504 790.649,968.504 791,944.5C 792.981,942.641 793.981,940.308 794,937.5C 794.708,936.619 795.542,935.953 796.5,935.5 Z"/></g>
<g><path style="opacity:1" fill="#47464a" d="M 796.5,935.5 C 795.542,935.953 794.708,936.619 794,937.5C 793.981,940.308 792.981,942.641 791,944.5C 790.649,968.504 783.982,990.504 771,1010.5C 756.554,1026.64 739.054,1038.14 718.5,1045C 715.854,1045.5 713.187,1045.66 710.5,1045.5C 710.5,1046.5 710.5,1047.5 710.5,1048.5C 690.567,1046.28 674.067,1037.62 661,1022.5C 655.615,1016.12 650.615,1009.45 646,1002.5C 631.541,969.33 623.707,934.663 622.5,898.5C 622.412,892.037 623.079,885.703 624.5,879.5C 632.29,897.616 645.957,908.283 665.5,911.5C 664.252,912.334 663.585,913.667 663.5,915.5C 665.993,927.776 668.493,940.11 671,952.5C 676.551,967.938 683.884,982.272 693,995.5C 706.358,1008.42 721.525,1010.92 738.5,1003C 744.14,998.684 748.306,993.184 751,986.5C 755.182,970.778 756.516,954.778 755,938.5C 754.203,907.949 744.536,880.615 726,856.5C 724.667,855.167 723.333,853.833 722,852.5C 721.601,852.728 721.435,853.062 721.5,853.5C 712.934,823.47 692.934,809.637 661.5,812C 658.721,812.561 656.054,813.394 653.5,814.5C 664.314,804.721 677.147,799.721 692,799.5C 712.753,800.967 730.92,808.467 746.5,822C 760.669,835.49 771.502,851.323 779,869.5C 788.274,890.595 794.107,912.595 796.5,935.5 Z"/></g>
<g><path style="opacity:1" fill="#010101" d="M 665.5,911.5 C 691.767,912.464 709.601,900.798 719,876.5C 720.977,868.961 721.811,861.294 721.5,853.5C 721.435,853.062 721.601,852.728 722,852.5C 723.333,853.833 724.667,855.167 726,856.5C 744.536,880.615 754.203,907.949 755,938.5C 756.516,954.778 755.182,970.778 751,986.5C 748.306,993.184 744.14,998.684 738.5,1003C 721.525,1010.92 706.358,1008.42 693,995.5C 683.884,982.272 676.551,967.938 671,952.5C 668.493,940.11 665.993,927.776 663.5,915.5C 663.585,913.667 664.252,912.334 665.5,911.5 Z"/></g>
<g><path style="opacity:1" fill="#fdfdfd" d="M 721.5,853.5 C 721.811,861.294 720.977,868.961 719,876.5C 709.601,900.798 691.767,912.464 665.5,911.5C 645.957,908.283 632.29,897.616 624.5,879.5C 626.574,859.445 632.741,840.778 643,823.5C 646.078,819.915 649.578,816.915 653.5,814.5C 656.054,813.394 658.721,812.561 661.5,812C 692.934,809.637 712.934,823.47 721.5,853.5 Z"/></g>
<g><path style="opacity:1" fill="#82cdc7" d="M 1242.5,431.5 C 1253.91,442.745 1264.07,455.079 1273,468.5C 1281.43,479.018 1290.1,489.352 1299,499.5C 1306.24,511.747 1313.91,523.747 1322,535.5C 1342.73,561.965 1362.73,588.965 1382,616.5C 1386.33,624.985 1390.49,633.485 1394.5,642C 1394.87,653.049 1394.04,664.215 1392,675.5C 1387.95,686.538 1382.61,696.871 1376,706.5C 1370.83,708.345 1367.83,712.012 1367,717.5C 1366.4,729.211 1366.9,740.878 1368.5,752.5C 1366.92,809.178 1365.09,865.844 1363,922.5C 1359.59,941 1357.92,959.667 1358,978.5C 1347.04,1070.34 1334.71,1162 1321,1253.5C 1315.14,1276.63 1310.14,1299.96 1306,1323.5C 1299.15,1348.56 1292.15,1373.56 1285,1398.5C 1278.73,1415.99 1272.06,1433.32 1265,1450.5C 1253.9,1472.59 1241.56,1493.92 1228,1514.5C 1221.7,1518.07 1215.2,1521.23 1208.5,1524C 1202.9,1525.46 1197.24,1525.79 1191.5,1525C 1181.04,1519.85 1170.71,1514.52 1160.5,1509C 1150.48,1499.47 1143.65,1487.97 1140,1474.5C 1137.33,1463.83 1134.67,1453.16 1132,1442.5C 1125.9,1398.02 1118.9,1353.68 1111,1309.5C 1109.7,1292.19 1108.87,1274.86 1108.5,1257.5C 1108.26,1245.06 1109.26,1232.72 1111.5,1220.5C 1133.61,1173.24 1149.78,1123.91 1160,1072.5C 1171.59,1015.09 1171.26,957.756 1159,900.5C 1154.02,882.427 1148.85,864.427 1143.5,846.5C 1140.9,825.206 1136.9,804.206 1131.5,783.5C 1138.19,747.928 1150.69,714.595 1169,683.5C 1181.32,661.51 1196.98,642.177 1216,625.5C 1218.71,649.197 1221.71,672.864 1225,696.5C 1226.33,697.833 1227.67,697.833 1229,696.5C 1228.44,642.834 1227.6,589.168 1226.5,535.5C 1231.39,504.032 1235.89,472.365 1240,440.5C 1240.2,437.203 1241.04,434.203 1242.5,431.5 Z"/></g>
<g><path style="opacity:1" fill="#d6eef9" d="M 1241.5,409.5 C 1244.67,411.252 1247.67,413.252 1250.5,415.5C 1246.78,420.271 1244.11,425.604 1242.5,431.5C 1241.04,434.203 1240.2,437.203 1240,440.5C 1235.89,472.365 1231.39,504.032 1226.5,535.5C 1225.53,497.163 1224.69,458.83 1224,420.5C 1224.73,416.311 1226.23,412.478 1228.5,409C 1232.86,408.466 1237.19,408.632 1241.5,409.5 Z"/></g>
<g><path style="opacity:1" fill="#d6eef9" d="M 1657.5,198.5 C 1654.63,203.554 1651.13,208.22 1647,212.5C 1646.52,213.448 1646.35,214.448 1646.5,215.5C 1631.69,239.104 1617.36,263.104 1603.5,287.5C 1612.94,253.011 1625.44,219.678 1641,187.5C 1642.79,185.042 1645.12,183.376 1648,182.5C 1654.76,185.552 1657.93,190.886 1657.5,198.5 Z"/></g>
<g><path style="opacity:1" fill="#82cdc7" d="M 1419.5,25.5 C 1434.81,81.6999 1450.98,138.033 1468,194.5C 1480.41,253.48 1494.08,312.146 1509,370.5C 1510.47,384.637 1512.8,398.637 1516,412.5C 1520.98,429.756 1525.65,447.089 1530,464.5C 1532.76,484.235 1535.93,503.902 1539.5,523.5C 1538.86,526.323 1537.53,528.823 1535.5,531C 1523.85,539.826 1511.85,548.16 1499.5,556C 1487.2,560.741 1474.54,563.908 1461.5,565.5C 1455.54,564.586 1449.54,564.253 1443.5,564.5C 1443.5,563.5 1443.5,562.5 1443.5,561.5C 1435.77,561.137 1429.11,558.304 1423.5,553C 1402.33,532.5 1381.17,512 1360,491.5C 1363.91,422.296 1368.74,353.296 1374.5,284.5C 1375.96,281.386 1377.12,278.052 1378,274.5C 1381.36,255.033 1385.36,235.7 1390,216.5C 1398.52,158.569 1406.52,100.569 1414,42.5C 1414.47,36.2748 1416.3,30.6082 1419.5,25.5 Z"/></g>
<g><path style="opacity:1" fill="#3bb5ac" d="M 1422.5,18.5 C 1429.16,28.4748 1435.33,38.8081 1441,49.5C 1449.27,65.7105 1457.27,82.0439 1465,98.5C 1510.86,209.939 1558.53,320.605 1608,430.5C 1616.36,448.216 1626.03,465.216 1637,481.5C 1641.03,486.43 1646.19,489.097 1652.5,489.5C 1652.73,486.562 1651.73,484.229 1649.5,482.5C 1650.12,467.235 1651.12,451.568 1652.5,435.5C 1650.25,419.978 1650.25,404.478 1652.5,389C 1651.87,382.32 1651.21,375.653 1650.5,369C 1650.74,368.127 1651.07,367.293 1651.5,366.5C 1649.95,316.192 1648.28,265.859 1646.5,215.5C 1646.35,214.448 1646.52,213.448 1647,212.5C 1651.13,208.22 1654.63,203.554 1657.5,198.5C 1661.96,220.301 1666.13,242.301 1670,264.5C 1680.38,350.938 1693.38,436.938 1709,522.5C 1710.12,524.624 1711.62,526.457 1713.5,528C 1721.89,533.521 1730.22,539.021 1738.5,544.5C 1739.46,545.363 1739.46,546.03 1738.5,546.5C 1727.42,543.782 1716.42,544.282 1705.5,548C 1667.81,561.757 1635.64,583.591 1609,613.5C 1549.74,680.41 1509.74,757.743 1489,845.5C 1453.42,982.965 1427.76,1122.3 1412,1263.5C 1404.82,1338.12 1398.16,1412.79 1392,1487.5C 1388.2,1524.52 1384.2,1561.52 1380,1598.5C 1378.23,1611.69 1375.56,1624.69 1372,1637.5C 1366.91,1651.61 1361.74,1665.61 1356.5,1679.5C 1343.75,1674.09 1331.08,1668.59 1318.5,1663C 1288.87,1651.6 1258.2,1647.77 1226.5,1651.5C 1219.7,1618.6 1205.53,1589.26 1184,1563.5C 1163.96,1542.48 1140.62,1526.14 1114,1514.5C 1093.91,1432.76 1083.24,1349.76 1082,1265.5C 1093.37,1251.39 1103.21,1236.39 1111.5,1220.5C 1109.26,1232.72 1108.26,1245.06 1108.5,1257.5C 1108.87,1274.86 1109.7,1292.19 1111,1309.5C 1118.9,1353.68 1125.9,1398.02 1132,1442.5C 1134.67,1453.16 1137.33,1463.83 1140,1474.5C 1143.65,1487.97 1150.48,1499.47 1160.5,1509C 1170.71,1514.52 1181.04,1519.85 1191.5,1525C 1197.24,1525.79 1202.9,1525.46 1208.5,1524C 1215.2,1521.23 1221.7,1518.07 1228,1514.5C 1241.56,1493.92 1253.9,1472.59 1265,1450.5C 1272.06,1433.32 1278.73,1415.99 1285,1398.5C 1292.15,1373.56 1299.15,1348.56 1306,1323.5C 1310.14,1299.96 1315.14,1276.63 1321,1253.5C 1334.71,1162 1347.04,1070.34 1358,978.5C 1357.92,959.667 1359.59,941 1363,922.5C 1365.09,865.844 1366.92,809.178 1368.5,752.5C 1366.9,740.878 1366.4,729.211 1367,717.5C 1367.83,712.012 1370.83,708.345 1376,706.5C 1382.61,696.871 1387.95,686.538 1392,675.5C 1394.04,664.215 1394.87,653.049 1394.5,642C 1390.49,633.485 1386.33,624.985 1382,616.5C 1362.73,588.965 1342.73,561.965 1322,535.5C 1313.91,523.747 1306.24,511.747 1299,499.5C 1290.1,489.352 1281.43,479.018 1273,468.5C 1264.07,455.079 1253.91,442.745 1242.5,431.5C 1244.11,425.604 1246.78,420.271 1250.5,415.5C 1264.22,425.712 1277.56,436.545 1290.5,448C 1331.49,486.321 1373.16,523.987 1415.5,561C 1419.24,563.732 1423.24,566.066 1427.5,568C 1433.47,569.254 1438.8,568.088 1443.5,564.5C 1449.54,564.253 1455.54,564.586 1461.5,565.5C 1474.54,563.908 1487.2,560.741 1499.5,556C 1511.85,548.16 1523.85,539.826 1535.5,531C 1537.53,528.823 1538.86,526.323 1539.5,523.5C 1535.93,503.902 1532.76,484.235 1530,464.5C 1525.65,447.089 1520.98,429.756 1516,412.5C 1512.8,398.637 1510.47,384.637 1509,370.5C 1494.08,312.146 1480.41,253.48 1468,194.5C 1450.98,138.033 1434.81,81.6999 1419.5,25.5C 1419.71,22.7594 1420.71,20.4261 1422.5,18.5 Z"/></g>
<g><path style="opacity:1" fill="#3ab4ac" d="M 1595.5,314.5 C 1598.24,324.356 1600.4,334.356 1602,344.5C 1603.62,361.765 1605.45,378.765 1607.5,395.5C 1599.3,378.755 1591.97,361.588 1585.5,344C 1588.75,334.078 1592.08,324.245 1595.5,314.5 Z"/></g>
<g><path style="opacity:1" fill="#82cdc7" d="M 1646.5,215.5 C 1648.28,265.859 1649.95,316.192 1651.5,366.5C 1651.07,367.293 1650.74,368.127 1650.5,369C 1651.21,375.653 1651.87,382.32 1652.5,389C 1650.25,404.478 1650.25,419.978 1652.5,435.5C 1651.12,451.568 1650.12,467.235 1649.5,482.5C 1647.16,480.996 1645.33,478.996 1644,476.5C 1630.2,450.24 1618.04,423.24 1607.5,395.5C 1605.45,378.765 1603.62,361.765 1602,344.5C 1600.4,334.356 1598.24,324.356 1595.5,314.5C 1598.17,305.496 1600.83,296.496 1603.5,287.5C 1617.36,263.104 1631.69,239.104 1646.5,215.5 Z"/></g>
<g><path style="opacity:1" fill="#d6effa" d="M 1422.5,18.5 C 1420.71,20.4261 1419.71,22.7594 1419.5,25.5C 1416.3,30.6082 1414.47,36.2748 1414,42.5C 1406.52,100.569 1398.52,158.569 1390,216.5C 1385.36,235.7 1381.36,255.033 1378,274.5C 1377.12,278.052 1375.96,281.386 1374.5,284.5C 1378.76,199.625 1385.6,114.958 1395,30.5C 1395.37,23.4252 1397.71,17.0918 1402,11.5C 1405.57,7.88229 1409.4,7.71562 1413.5,11C 1416.69,13.3644 1419.69,15.8644 1422.5,18.5 Z"/></g>
<g><path style="opacity:1" fill="#bacfde" d="M 859.5,1361.5 C 867.972,1368.06 877.639,1371.22 888.5,1371C 887.743,1372.51 886.743,1373.85 885.5,1375C 869.807,1382.51 854.14,1390.01 838.5,1397.5C 842.418,1391.07 846.585,1384.73 851,1378.5C 854.141,1372.9 856.974,1367.23 859.5,1361.5 Z"/></g>
<g><path style="opacity:1" fill="#eaf0f3" d="M 1068.5,1384.5 C 1067.28,1398.82 1064.45,1412.82 1060,1426.5C 1048.42,1452.09 1037.92,1478.09 1028.5,1504.5C 1026.67,1502.54 1026.17,1500.21 1027,1497.5C 1031.29,1485.96 1035.95,1474.63 1041,1463.5C 1046.58,1441.47 1052.75,1419.47 1059.5,1397.5C 1059.38,1396.89 1059.04,1396.56 1058.5,1396.5C 1061.38,1392.03 1064.72,1388.03 1068.5,1384.5 Z"/></g>
<g><path style="opacity:1" fill="#97a9b5" d="M 1078.5,1414.5 C 1083.27,1445.36 1089.61,1476.03 1097.5,1506.5C 1084.55,1502.33 1071.88,1496.83 1059.5,1490C 1056.17,1486.67 1052.83,1483.33 1049.5,1480C 1062.75,1459.77 1072.41,1437.93 1078.5,1414.5 Z"/></g>
<g><path style="opacity:1" fill="#ecf1f4" d="M 269.5,1566.5 C 273.316,1567.18 277.149,1568.85 281,1571.5C 283.605,1570.19 286.105,1570.19 288.5,1571.5C 287.325,1571.28 286.325,1571.61 285.5,1572.5C 286.313,1573.81 287.313,1574.98 288.5,1576C 304.854,1586.36 321.187,1596.7 337.5,1607C 345.374,1609.97 353.374,1612.64 361.5,1615C 390.67,1618.54 418.337,1626.87 444.5,1640C 445.793,1640.49 447.127,1640.66 448.5,1640.5C 450.085,1648.16 450.752,1655.83 450.5,1663.5C 440.77,1656.97 430.436,1651.47 419.5,1647C 393.49,1637.99 367.49,1628.99 341.5,1620C 312.175,1609.19 288.175,1591.35 269.5,1566.5 Z"/></g>
<g><path style="opacity:1" fill="#bbd1e0" d="M 288.5,1571.5 C 308.81,1576.66 329.143,1581.83 349.5,1587C 375.988,1591.31 402.655,1592.64 429.5,1591C 433.582,1588.63 437.916,1586.79 442.5,1585.5C 443.474,1583.26 443.808,1580.92 443.5,1578.5C 445.077,1599.03 446.744,1619.7 448.5,1640.5C 447.127,1640.66 445.793,1640.49 444.5,1640C 418.337,1626.87 390.67,1618.54 361.5,1615C 353.374,1612.64 345.374,1609.97 337.5,1607C 321.187,1596.7 304.854,1586.36 288.5,1576C 287.313,1574.98 286.313,1573.81 285.5,1572.5C 286.325,1571.61 287.325,1571.28 288.5,1571.5 Z"/></g>
<g><path style="opacity:1" fill="#fcfdfe" d="M 1242.5,1661.5 C 1250.17,1661.33 1257.84,1661.5 1265.5,1662C 1296.22,1667.3 1325.22,1677.46 1352.5,1692.5C 1359.1,1699.11 1365.44,1706.11 1371.5,1713.5C 1370.4,1714.18 1369.4,1714.84 1368.5,1715.5C 1363.75,1715.27 1359.09,1715.77 1354.5,1717C 1353.17,1718 1353.17,1719 1354.5,1720C 1361.83,1720.5 1369.16,1720.67 1376.5,1720.5C 1386.53,1735.64 1390.03,1752.31 1387,1770.5C 1384.68,1779.47 1380.52,1787.47 1374.5,1794.5C 1373.58,1795.13 1372.58,1795.46 1371.5,1795.5C 1362.49,1792.1 1353.16,1790.1 1343.5,1789.5C 1343.33,1790.82 1343.66,1791.99 1344.5,1793C 1351.14,1794.82 1357.47,1797.32 1363.5,1800.5C 1358.69,1803.16 1353.36,1804.99 1347.5,1806C 1326.12,1807.74 1305.45,1804.74 1285.5,1797C 1272.97,1790.24 1260.64,1783.24 1248.5,1776C 1229.08,1759.96 1219.74,1739.13 1220.5,1713.5C 1220.05,1704.46 1222.05,1696.13 1226.5,1688.5C 1226.5,1688.17 1226.5,1687.83 1226.5,1687.5C 1227.16,1683.48 1228.33,1679.48 1230,1675.5C 1233.49,1670.15 1237.66,1665.49 1242.5,1661.5 Z"/></g>
<g><path style="opacity:1" fill="#b5cad7" d="M 1242.5,1661.5 C 1237.66,1665.49 1233.49,1670.15 1230,1675.5C 1228.33,1679.48 1227.16,1683.48 1226.5,1687.5C 1226.5,1679.17 1226.5,1670.83 1226.5,1662.5C 1231.79,1661.66 1237.12,1661.32 1242.5,1661.5 Z"/></g>
<g><path style="opacity:1" fill="#b8ccd9" d="M 1352.5,1692.5 C 1364.01,1697.17 1373.34,1704.67 1380.5,1715C 1376.51,1715.5 1372.51,1715.67 1368.5,1715.5C 1369.4,1714.84 1370.4,1714.18 1371.5,1713.5C 1365.44,1706.11 1359.1,1699.11 1352.5,1692.5 Z"/></g>
<g><path style="opacity:1" fill="#bbd0df" d="M 1376.5,1720.5 C 1379.69,1720.9 1382.69,1721.9 1385.5,1723.5C 1388.51,1727.51 1391.01,1731.84 1393,1736.5C 1397.82,1750.11 1399.82,1764.11 1399,1778.5C 1397.77,1790.21 1393.43,1800.55 1386,1809.5C 1381.93,1803.93 1377.1,1799.26 1371.5,1795.5C 1372.58,1795.46 1373.58,1795.13 1374.5,1794.5C 1380.52,1787.47 1384.68,1779.47 1387,1770.5C 1390.03,1752.31 1386.53,1735.64 1376.5,1720.5 Z"/></g>
<g><path style="opacity:1" fill="#bbd1e1" d="M 878.5,1396.5 C 876.677,1416.11 884.344,1430.61 901.5,1440C 924.231,1449.38 947.565,1451.05 971.5,1445C 986.037,1441.49 1000.04,1436.82 1013.5,1431C 1031.3,1423.02 1046.3,1411.52 1058.5,1396.5C 1059.04,1396.56 1059.38,1396.89 1059.5,1397.5C 1052.75,1419.47 1046.58,1441.47 1041,1463.5C 1035.95,1474.63 1031.29,1485.96 1027,1497.5C 1026.17,1500.21 1026.67,1502.54 1028.5,1504.5C 1027.07,1510.71 1025.4,1516.88 1023.5,1523C 1023.83,1523.5 1024.17,1524 1024.5,1524.5C 1028.26,1517.32 1031.76,1509.99 1035,1502.5C 1037.6,1498.29 1040.43,1494.29 1043.5,1490.5C 1050.4,1496.9 1057.73,1502.74 1065.5,1508C 1086.17,1518.33 1106.83,1528.67 1127.5,1539C 1146.14,1550.3 1162.3,1564.47 1176,1581.5C 1199.15,1613.58 1214.15,1649.25 1221,1688.5C 1222.81,1691.02 1224.64,1691.02 1226.5,1688.5C 1222.05,1696.13 1220.05,1704.46 1220.5,1713.5C 1219.74,1739.13 1229.08,1759.96 1248.5,1776C 1260.64,1783.24 1272.97,1790.24 1285.5,1797C 1305.45,1804.74 1326.12,1807.74 1347.5,1806C 1353.36,1804.99 1358.69,1803.16 1363.5,1800.5C 1371.41,1802.59 1377.41,1807.09 1381.5,1814C 1376.32,1819.61 1370.32,1824.27 1363.5,1828C 1330.2,1842 1295.53,1846.66 1259.5,1842C 1229.89,1841.35 1203.89,1831.51 1181.5,1812.5C 1182.75,1809.93 1183.92,1807.27 1185,1804.5C 1186.25,1792.54 1188.09,1780.71 1190.5,1769C 1190.32,1764.49 1188.66,1760.65 1185.5,1757.5C 1187.28,1756.01 1187.95,1754.01 1187.5,1751.5C 1173.98,1756.93 1161.65,1764.43 1150.5,1774C 1104.94,1825.9 1056.94,1875.57 1006.5,1923C 997.824,1930 988.824,1936.5 979.5,1942.5C 975.167,1945.17 970.833,1947.83 966.5,1950.5C 966.44,1949.96 966.107,1949.62 965.5,1949.5C 903.544,1975.85 838.877,1986.69 771.5,1982C 746.248,1981.4 721.582,1977.4 697.5,1970C 675.417,1959.42 653.084,1949.42 630.5,1940C 619.232,1930.69 607.232,1922.36 594.5,1915C 592.131,1914.46 590.131,1913.3 588.5,1911.5C 587.893,1911.62 587.56,1911.96 587.5,1912.5C 564.601,1891.65 544.767,1868.32 528,1842.5C 502.12,1794.36 484.287,1743.36 474.5,1689.5C 483.876,1705.4 495.21,1719.9 508.5,1733C 558.516,1767.76 614.183,1783.09 675.5,1779C 707.887,1778.71 739.22,1773.04 769.5,1762C 789.402,1751.89 808.735,1741.06 827.5,1729.5C 836.916,1719.93 846.916,1710.76 857.5,1702C 860.06,1700.15 862.727,1698.48 865.5,1697C 872.635,1688.86 880.135,1681.03 888,1673.5C 900.293,1652.57 905.626,1629.9 904,1605.5C 902.278,1588.51 900.612,1571.51 899,1554.5C 898,1550.5 897,1546.5 896,1542.5C 895.382,1521.22 892.716,1500.22 888,1479.5C 885.179,1471.88 882.513,1464.22 880,1456.5C 875.964,1447.81 871.964,1439.15 868,1430.5C 861.907,1419.29 853.74,1409.95 843.5,1402.5C 853.234,1397.8 863.234,1393.47 873.5,1389.5C 874.521,1390 874.688,1390.67 874,1391.5C 869.252,1397.99 864.752,1404.66 860.5,1411.5C 860.833,1412.5 861.5,1413.17 862.5,1413.5C 867.855,1407.81 873.188,1402.15 878.5,1396.5 Z"/></g>
<g><path style="opacity:1" fill="#98aab6" d="M 1185.5,1757.5 C 1188.66,1760.65 1190.32,1764.49 1190.5,1769C 1188.09,1780.71 1186.25,1792.54 1185,1804.5C 1183.92,1807.27 1182.75,1809.93 1181.5,1812.5C 1171.66,1804.82 1162.99,1795.99 1155.5,1786C 1163.74,1774.59 1173.74,1765.09 1185.5,1757.5 Z"/></g>
<g><path style="opacity:1" fill="#edf2f6" d="M 1710.5,1438.5 C 1697.54,1483.89 1681.7,1528.22 1663,1571.5C 1634.24,1630.02 1605.24,1688.35 1576,1746.5C 1568.67,1759.83 1561.33,1773.17 1554,1786.5C 1540.06,1808.77 1525.73,1830.77 1511,1852.5C 1475.79,1905.38 1432.63,1950.88 1381.5,1989C 1331.39,2024.54 1275.72,2045.88 1214.5,2053C 1171.72,2059.07 1130.06,2054.74 1089.5,2040C 1046.94,2021.11 1009.61,1994.78 977.5,1961C 982.056,1957.89 986.723,1955.06 991.5,1952.5C 993.783,1952.61 995.783,1953.44 997.5,1955C 1004.19,1960.69 1011.19,1966.02 1018.5,1971C 1022.72,1976.46 1027.39,1981.46 1032.5,1986C 1059.66,2004.58 1089,2018.91 1120.5,2029C 1147.9,2034.58 1175.57,2037.25 1203.5,2037C 1221.51,2034.83 1239.51,2032.5 1257.5,2030C 1274.07,2021.7 1291.07,2014.37 1308.5,2008C 1326.32,1998.92 1343.99,1989.59 1361.5,1980C 1375.13,1970.37 1387.46,1959.37 1398.5,1947C 1411.8,1936.42 1424.63,1925.26 1437,1913.5C 1451.05,1896.45 1464.71,1879.12 1478,1861.5C 1493.46,1844.61 1508.46,1827.27 1523,1809.5C 1538.2,1783.95 1553.87,1758.62 1570,1733.5C 1577.75,1720.91 1584.75,1707.91 1591,1694.5C 1595.33,1687.83 1599.67,1681.17 1604,1674.5C 1613.43,1655.57 1622.09,1636.24 1630,1616.5C 1636.38,1603.24 1643.21,1590.08 1650.5,1577C 1661.87,1548.85 1674.37,1521.35 1688,1494.5C 1694.46,1475.59 1701.46,1456.93 1709,1438.5C 1709.78,1435.9 1710.28,1435.9 1710.5,1438.5 Z"/></g>
<g><path style="opacity:1" fill="#ecf1f5" d="M 587.5,1912.5 C 587.56,1911.96 587.893,1911.62 588.5,1911.5C 590.131,1913.3 592.131,1914.46 594.5,1915C 607.232,1922.36 619.232,1930.69 630.5,1940C 653.084,1949.42 675.417,1959.42 697.5,1970C 721.582,1977.4 746.248,1981.4 771.5,1982C 838.877,1986.69 903.544,1975.85 965.5,1949.5C 966.107,1949.62 966.44,1949.96 966.5,1950.5C 955.844,1956.83 944.844,1962.66 933.5,1968C 891.882,1985.13 848.549,1995.13 803.5,1998C 772.259,1999.94 741.593,1996.6 711.5,1988C 664.2,1972.2 622.867,1947.04 587.5,1912.5 Z"/></g>
<g><path style="opacity:1" fill="#98abb6" d="M 891.5,1998.5 C 891.826,2007.02 891.493,2015.35 890.5,2023.5C 883.35,2024.25 877.35,2022.08 872.5,2017C 864.668,2017.66 860.335,2014.16 859.5,2006.5C 869.972,2003.55 880.639,2000.88 891.5,1998.5 Z"/></g>
<g><path style="opacity:1" fill="#fcfdfe" d="M 719.5,2028.5 C 723.392,2029.74 727.392,2030.9 731.5,2032C 756.788,2044.6 779.954,2060.44 801,2079.5C 811.262,2094.3 814.095,2110.3 809.5,2127.5C 807.732,2130.16 807.065,2133.16 807.5,2136.5C 807.212,2155.25 797.879,2166.42 779.5,2170C 769.959,2170.91 760.459,2172.08 751,2173.5C 746.875,2173.34 743.042,2172.34 739.5,2170.5C 738.338,2165.85 737.171,2161.18 736,2156.5C 735.311,2143.77 735.644,2131.1 737,2118.5C 735.413,2117.27 734.079,2117.61 733,2119.5C 727.577,2128.77 725.243,2138.77 726,2149.5C 711.297,2115.42 707.297,2080.09 714,2043.5C 715.547,2038.36 717.38,2033.36 719.5,2028.5 Z"/></g>
<g><path style="opacity:1" fill="#bbd1e1" d="M 859.5,2006.5 C 860.335,2014.16 864.668,2017.66 872.5,2017C 877.35,2022.08 883.35,2024.25 890.5,2023.5C 889.478,2029.92 887.978,2036.26 886,2042.5C 876.872,2064.7 868.205,2087.03 860,2109.5C 848.234,2130.05 835.734,2150.05 822.5,2169.5C 819.809,2165.28 817.976,2160.61 817,2155.5C 814.692,2146.65 813.359,2137.65 813,2128.5C 811.989,2127.66 810.822,2127.33 809.5,2127.5C 814.095,2110.3 811.262,2094.3 801,2079.5C 779.954,2060.44 756.788,2044.6 731.5,2032C 727.392,2030.9 723.392,2029.74 719.5,2028.5C 721.88,2022.74 724.546,2017.07 727.5,2011.5C 728.5,2011.17 729.5,2010.83 730.5,2010.5C 758.034,2015.95 785.701,2016.78 813.5,2013C 828.921,2011.32 844.254,2009.16 859.5,2006.5 Z"/></g>
<g><path style="opacity:1" fill="#edf1f5" d="M 822.5,2169.5 C 835.734,2150.05 848.234,2130.05 860,2109.5C 868.205,2087.03 876.872,2064.7 886,2042.5C 887.978,2036.26 889.478,2029.92 890.5,2023.5C 891.493,2015.35 891.826,2007.02 891.5,1998.5C 895.019,1997.04 898.686,1996.04 902.5,1995.5C 903.521,2004.81 903.687,2014.14 903,2023.5C 896.98,2054.61 888.313,2084.94 877,2114.5C 867.576,2132.58 856.576,2149.58 844,2165.5C 838.931,2170.41 833.431,2174.74 827.5,2178.5C 825.048,2175.93 823.381,2172.93 822.5,2169.5 Z"/></g>
<g><path style="opacity:1" fill="#bbd0de" d="M 807.5,2136.5 C 807.334,2143.17 807.5,2149.84 808,2156.5C 810.017,2163.39 812.517,2170.06 815.5,2176.5C 803.756,2181.19 791.756,2185.36 779.5,2189C 784.155,2189.5 788.821,2189.67 793.5,2189.5C 771.874,2193.51 753.874,2187.18 739.5,2170.5C 743.042,2172.34 746.875,2173.34 751,2173.5C 760.459,2172.08 769.959,2170.91 779.5,2170C 797.879,2166.42 807.212,2155.25 807.5,2136.5 Z"/></g>
<g><path style="opacity:1" fill="#ebf1f4" d="M 815.5,2176.5 C 816.948,2178.56 818.281,2180.72 819.5,2183C 811.303,2187.05 802.636,2189.22 793.5,2189.5C 788.821,2189.67 784.155,2189.5 779.5,2189C 791.756,2185.36 803.756,2181.19 815.5,2176.5 Z"/></g>
</svg>
